<svg xmlns="http://www.w3.org/2000/svg" xmlns:xlink="http://www.w3.org/1999/xlink" viewBox="0 0 93.89 56.15"><defs><style>.cls-1,.cls-2{stroke:#69c9ca;stroke-miterlimit:10;stroke-width:2px;}.cls-1{fill:url(#linear-gradient);}.cls-2{fill:none;}</style><linearGradient id="linear-gradient" x1="1" y1="28.07" x2="46.29" y2="28.07" gradientUnits="userSpaceOnUse"><stop offset="0" stop-color="#69c9ca"/><stop offset="1" stop-color="#69c9ca" stop-opacity="0.1"/></linearGradient></defs><g id="Layer_2" data-name="Layer 2"><g id="Layer_1-2" data-name="Layer 1"><path class="cls-1" d="M46.29,34.7c0,12.67-8.71,20.45-19,20.45-4.89,0-8.42-1.3-10.8-4v3.24H1V1H17.27V17.71c2.38-2.31,5.69-3.39,10-3.39C37.58,14.32,46.29,22,46.29,34.7Zm-16.49,0C29.8,29.59,27,27,23.39,27S17,29.59,17,34.7s2.8,7.78,6.4,7.78S29.8,39.81,29.8,34.7Z"/><path class="cls-2" d="M92.89,32V54.43H76.62V34.77c0-4.9-1.87-6.77-4.83-6.77-3.31,0-6.12,2.09-6.12,7.92V54.43H49.4V1H65.67V18.21a16.7,16.7,0,0,1,11.09-3.89C85.84,14.32,92.89,19.58,92.89,32Z"/></g></g></svg>