<svg xmlns="http://www.w3.org/2000/svg" viewBox="0 0 98.89 59.15"><defs><style>.cls-1{fill:#41bb93;}.cls-1,.cls-2{stroke:#41bb93;stroke-miterlimit:10;stroke-width:5px;}.cls-2{fill:none;}</style></defs><g id="Layer_2" data-name="Layer 2"><g id="Layer_1-2" data-name="Layer 1"><path class="cls-1" d="M47.79,36.2c0,12.67-8.71,20.45-19,20.45-4.89,0-8.42-1.3-10.8-4v3.24H2.5V2.5H18.77V19.21c2.38-2.31,5.69-3.39,10-3.39C39.08,15.82,47.79,23.53,47.79,36.2Zm-16.49,0c0-5.11-2.81-7.71-6.41-7.71s-6.4,2.6-6.4,7.71S21.29,44,24.89,44,31.3,41.31,31.3,36.2Z"/><path class="cls-2" d="M96.39,33.46V55.93H80.12V36.27c0-4.9-1.87-6.77-4.83-6.77-3.31,0-6.12,2.09-6.12,7.92V55.93H52.9V2.5H69.17V19.71a16.7,16.7,0,0,1,11.09-3.89C89.34,15.82,96.39,21.08,96.39,33.46Z"/></g></g></svg>