<svg xmlns="http://www.w3.org/2000/svg" viewBox="0 0 92.39 55.65"><defs><style>.cls-1{fill:#8bcfb7;}.cls-1,.cls-2{stroke:#8bcfb7;stroke-miterlimit:10;}.cls-2{fill:none;stroke-width:2px;}</style></defs><g id="Layer_2" data-name="Layer 2"><g id="Layer_1-2" data-name="Layer 1"><path class="cls-1" d="M45.79,34.7c0,12.67-8.71,20.45-19,20.45-4.89,0-8.42-1.3-10.8-4v3.24H.5V1H16.77V17.71c2.38-2.31,5.69-3.39,10-3.39C37.08,14.32,45.79,22,45.79,34.7Zm-16.49,0c0-5.11-2.81-7.71-6.41-7.71s-6.4,2.6-6.4,7.71,2.8,7.78,6.4,7.78S29.3,39.81,29.3,34.7Z"/><path class="cls-2" d="M91.39,32V54.43H75.12V34.77c0-4.9-1.87-6.77-4.83-6.77-3.31,0-6.12,2.09-6.12,7.92V54.43H47.9V1H64.17V18.21a16.7,16.7,0,0,1,11.09-3.89C84.33,14.32,91.39,19.58,91.39,32Z"/></g></g></svg>