<svg xmlns="http://www.w3.org/2000/svg" viewBox="0 0 72.68 44"><defs><style>.cls-1{fill:#78cab9;}.cls-1,.cls-2{stroke:#78cab9;stroke-miterlimit:10;stroke-width:2px;}.cls-2{fill:none;}</style></defs><g id="Layer_2" data-name="Layer 2"><g id="Layer_1-2" data-name="Layer 1"><path class="cls-1" d="M21.7,42.8a12.7,12.7,0,0,1-7.5-2V43H1V1H14.2V16.2a13.57,13.57,0,0,1,3.06-1.63,16.11,16.11,0,0,1,16,3.21,14.22,14.22,0,0,1,3.18,4.64,13.48,13.48,0,0,1,1.14,5.82,13.58,13.58,0,0,1-1.14,5.88,14.39,14.39,0,0,1-3.24,4.59,15.29,15.29,0,0,1-5,3.06A20.35,20.35,0,0,1,21.7,42.8ZM19.12,23.06a5.8,5.8,0,0,0-3.9,1.33,4.56,4.56,0,0,0-1.56,3.51,4.74,4.74,0,0,0,1.56,3.7,5.75,5.75,0,0,0,3.9,1.33,4.78,4.78,0,0,0,5.16-5C24.28,25,22.18,23.06,19.12,23.06Z"/><path class="cls-2" d="M59.68,43V27.35a4.88,4.88,0,0,0-1-3.45c-.18-.2-.78-.79-2.76-.79a5.85,5.85,0,0,0-3.66,1.14,4,4,0,0,0-1.38,3.3V43h-12V1h12V15.12a16.77,16.77,0,0,1,6.84-1.44,15.49,15.49,0,0,1,10.08,3.21,11,11,0,0,1,3.9,8.94V43Z"/></g></g></svg>