<svg xmlns="http://www.w3.org/2000/svg" viewBox="0 0 211.27 127.93"><defs><style>.cls-1{fill:#262262;}.cls-2{fill:#231f20;}.cls-12,.cls-3{fill:#fff;}.cls-4{fill:#f05441;}.cls-5{fill:#bfc1c8;}.cls-6{fill:#8b8d95;}.cls-7{fill:#666766;}.cls-8{fill:#f5ac8d;}.cls-9{fill:#4b3b54;}.cls-10{fill:#403636;}.cls-11{fill:#7c79a8;}.cls-12{font-size:1.5px;font-family:AcierBATText-Gris, Acier BAT;}.cls-13{letter-spacing:-0.13em;}.cls-14{fill:#4ab3e6;}.cls-15{fill:#79c2e4;}.cls-16{fill:#71ccda;}.cls-17{fill:#43c0ee;}.cls-18{fill:#45b663;}.cls-19{fill:#4ec7ea;}.cls-20{fill:#68be58;}.cls-21{fill:#20a26a;}.cls-22{fill:#4bc3d8;}.cls-23{fill:#68c6b6;}.cls-24{fill:#25aa88;}</style></defs><g id="Layer_2" data-name="Layer 2"><g id="Layer_1-2" data-name="Layer 1"><path class="cls-1" d="M61,42.79H57.51c-.65,0-1.33-.23-1.94.17.1,3.41.23,6.82.29,10.23.11,6.06.21,12.13-.14,18.18a7.68,7.68,0,0,0,0,.83h3c.23,0,.5-.08.7.13a2,2,0,0,1-.58,2.27,23.56,23.56,0,0,1-5.73,1.24c-.93.08-1.92.4-2.85-.11-.15,0-.34.08-.31.27s.26.23.43.25a15,15,0,0,0,3.42,0c1.68-.2,3.35-.48,5-.69.68-.08.89-.36.91-1.06.34-9.45.72-18.9,1.09-28.35a.4.4,0,0,1,0-.26A8.4,8.4,0,0,1,61,42.79Z"/><path class="cls-2" d="M51.07,68.25l2.35,1.17c1.13.57,1.12.57.58,1.7-.1.22-.18.44-.28.67a.77.77,0,0,1-.31.53c-1.71-.48-3.45-.89-5.14-1.48A9.37,9.37,0,0,1,44.69,69c1.19-.12,2.36.19,3.55.14A4,4,0,0,0,51.07,68.25Z"/><path class="cls-3" d="M44.69,69a9.37,9.37,0,0,0,3.58,1.89c1.69.59,3.43,1,5.14,1.48-.14.43-.48.46-.82.36a38,38,0,0,1-8.09-3.19c-.18-.11-.44-.23-.37-.45S44.48,68.88,44.69,69Z"/><path class="cls-1" d="M49.89,68.84a15.88,15.88,0,0,0,1.77.43c.22-.06.5.1,1.08.43.8.44,1.59.89,2.38,1.34,1.43-3,1.19-10.71,2.57-13.7,2.53-5.48,6.68-6.2,8.9-11.82.21-.55.41-1.1.61-1.64-.36-.29-.84-.29-1.23-.51-1.59-.88-3.19-1.77-4.78-2.67a8,8,0,0,0-1.52,2.69.3.3,0,0,1,.13,0c.22.25,0,.52,0,.75s-.08.34-.11.51,0,.19.06.29c0-.1,0-.2-.06-.29A34.62,34.62,0,0,0,51.5,59.93Z"/><path class="cls-3" d="M70.47,23.56a4.08,4.08,0,0,0-2.21-1.34,16.28,16.28,0,0,0-3.85-.8c-.47.09-.46.6-.73.87-.5.53-1,1-1.82.81a1.42,1.42,0,0,1-1.16-1.26c-.06-.54-.49-.33-.78-.41a8.94,8.94,0,0,0-4.71,1.68,1.89,1.89,0,0,0-.83,1.74,13.62,13.62,0,0,1-.1,2.39c.47,2.2.73,4.42,1,6.65a76.34,76.34,0,0,1-.25,8.28,2.75,2.75,0,0,0,.42,1.72c.53-.44,1.11-.13,1.66-.1a47.56,47.56,0,0,0,10.19-.24,31.25,31.25,0,0,0,.12-7.36,11.33,11.33,0,0,1,1.94-6.78c-.37-.74-.67-1.51-1.11-2.21-.58-.92-1.05-1.82-.38-2.88S69.53,23.52,70.47,23.56Z"/><path class="cls-4" d="M79.11,31.14c0,.05,0,.11,0,.14s.08,0,.11,0Z"/><path class="cls-5" d="M87.75,58.57a8,8,0,0,0-1.49-1.68l-.63-.55.53-.47A4.79,4.79,0,0,0,87,55c.85-1.15,1.88-3.41,1.88-7.42a15.9,15.9,0,0,0-.74-5,11,11,0,0,0-2-3.61,10.47,10.47,0,0,0-5.71-3.42L69,33l-.68-.2V74.32l13.3,3.74.07,0a7.36,7.36,0,0,0,4.6-.31A6.2,6.2,0,0,0,89.2,75a14.58,14.58,0,0,0,1.29-6.64C90.49,65.6,90,61.65,87.75,58.57Zm-12-13.92,2.85.67h0l.06,0a3,3,0,0,1,1.39.82,3.37,3.37,0,0,1,1,2.68c0,1.54-.52,2.21-1,2.5a1.75,1.75,0,0,1-1.08.23l-3.33-.82ZM81,67.21a1.66,1.66,0,0,1-1.28.31l-4-1.06V59.51l3.41.87.11,0a4.31,4.31,0,0,1,1.7.93,3.93,3.93,0,0,1,1.22,3.1C82.23,65.84,81.84,66.78,81,67.21Z"/><path class="cls-5" d="M91.45,80.82V37.88L112,42.43v9.48L99.63,49v8.77l9.35,2.3v7.59l-9.35-2.4v8.51L112,77.1v9.49Z"/><path class="cls-5" d="M130.26,94.37A22.36,22.36,0,0,1,123,90.84,22.83,22.83,0,0,1,116.83,84c-2.9-4.85-4.27-10.92-4.15-18.15a26.4,26.4,0,0,1,1.94-10.12A13.48,13.48,0,0,1,119,50a12.89,12.89,0,0,1,10.71-2.31l.08,0a13.82,13.82,0,0,1,6.16,2.82,28,28,0,0,1,6.14,7.79l.37.58L137.12,66l-.45-.7A24.15,24.15,0,0,0,135,63a10.56,10.56,0,0,0-5.35-3.57,5.21,5.21,0,0,0-5.48,2A11.75,11.75,0,0,0,122,68.71a18.69,18.69,0,0,0,2.06,8.63c1,1.9,2.75,4.27,5.56,5a6.77,6.77,0,0,0,5.63-.67,5.39,5.39,0,0,0,1.41-1.34l.45-.52,5.33,9.22-.24.42a11.62,11.62,0,0,1-2.66,3.19,10,10,0,0,1-3.77,2A11.24,11.24,0,0,1,130.26,94.37Z"/><path class="cls-5" d="M160.62,103a24.81,24.81,0,0,1-7.82-3.76,24.35,24.35,0,0,1-6.68-7.14C143,87,141.51,80.71,141.63,73.2a26.45,26.45,0,0,1,2.1-10.49,13.93,13.93,0,0,1,4.71-6A14.36,14.36,0,0,1,160,54.41l.09,0a15.66,15.66,0,0,1,6.66,3,30,30,0,0,1,6.64,8.17l.4.6L168,73.53l-.48-.73a26.65,26.65,0,0,0-1.79-2.33A11.51,11.51,0,0,0,160,66.7a5.72,5.72,0,0,0-5.92,2,11.83,11.83,0,0,0-2.35,7.56,18.8,18.8,0,0,0,2.23,9,10.18,10.18,0,0,0,6,5.29,7.58,7.58,0,0,0,6.09-.64,5.8,5.8,0,0,0,1.53-1.38L168,88l5.77,9.65-.26.44a12.13,12.13,0,0,1-2.88,3.29,10.94,10.94,0,0,1-4.07,2A12.68,12.68,0,0,1,160.62,103Z"/><path class="cls-5" d="M200.22,111.37l-2.55-10.88L185.8,97.3l-2.51,9.32-10.36-2.92,13.83-44.23,9.87,2.2,14.57,52.79Zm-4-20.38-3.92-13.87-4,11.83Z"/><path class="cls-6" d="M15.13,79.57l11.41-2.92-8.38-2.57L6.78,76.92,0,74.77,31.84,67l6.85,2-11.87,3,8.4,2.52,11.89-3,7.16,2.07-32,8.37Z"/><path class="cls-6" d="M42.65,88.3l5-2.48L39,83.14,30.35,84.4,22.8,82l41.87-5.36,7.21,2.1L50.6,90.82Zm10-4.47,5.57-3.16-11.32,1.4Z"/><path class="cls-6" d="M64.34,96.27a20,20,0,0,1-5.26-2.38c-1.26-.86-1.84-1.73-1.81-2.59,0-1.84,2.78-3.59,8-5a55.13,55.13,0,0,1,7.66-1.55,69.71,69.71,0,0,1,8.28-.58A57.79,57.79,0,0,1,97.7,86.21a17.87,17.87,0,0,1,5.67,2.52c1.35,1,2,2,1.92,2.94l0,.17-11.09-.32,0-.12c-.16-1.16-1.62-2.12-4.23-2.9a27.36,27.36,0,0,0-7.49-.91,33.82,33.82,0,0,0-8.73,1.23c-2.47.71-4,1.58-4.32,2.46s.71,1.85,3.09,2.59A31.77,31.77,0,0,0,77.83,95l.72.08,3.12-.94L88.82,92l8,2.42L81.44,99.15h-.27a74.55,74.55,0,0,1-8.32-.93A59.22,59.22,0,0,1,64.34,96.27Z"/><path class="cls-6" d="M80.53,100.31l32.2-9.89,21.94,6.36L128,99l-13.2-3.91-6.39,2,10,3-5.54,1.79-10-3.06-6.42,2L109.71,105l-7.16,2.34Z"/><path class="cls-6" d="M121.47,113.32l3.38-5.21-2-.61-9.59,3.22-9.35-3L136.1,97.22l14.14,4.1a22.64,22.64,0,0,1,5.09,2c1.16.64,1.84,1.34,1.94,2,.29,1.3-1.39,2.61-4.71,3.78a28.72,28.72,0,0,1-6.93,1.5,38.86,38.86,0,0,1-7.93,0l-.87-.07-3.57,6.5Zm10.12-8.88,2.85.86a12.3,12.3,0,0,0,7.12.17c.92-.31,1.33-.64,1.25-1s-.9-.82-2.29-1.24l-2.85-.84Z"/><path class="cls-6" d="M137.83,118.48l25.4-9.14-9.4-2.78,6.59-2.31,29.49,8.55-6.53,2.49-9.88-2.92-25.33,9.38Z"/><path class="cls-6" d="M171.88,118.83l3.17-10.17,12.62,3.68-3.89,5.22,14.48-2.12,13,3.78L182.12,122l-14.47,6-10.75-3.41Z"/><path class="cls-7" d="M78,36.19c-1.48,0-3,0-4.43,0-.57,0-.75-.19-.74-.75s.14-.76.73-.75c2.15,0,4.31,0,6.46,0a1.31,1.31,0,0,0,1.39-.87c1.15-2.37,2.43-4.67,3.66-7a.37.37,0,0,1,.43-.25.71.71,0,0,1,.61.6,2.26,2.26,0,0,1-.22,1.52c-1,1.78-1.83,3.6-2.82,5.35-.29.52,0,1-.07,1.42s-.16.73-.69.71c-.71,0-1.42,0-2.13,0Z"/><path class="cls-2" d="M56,72.21H58.6c1.26,0,1.25,0,1.28,1.26,0,.24,0,.48,0,.72a.79.79,0,0,1,0,.62c-1.75.34-3.49.75-5.26,1a9.54,9.54,0,0,1-4-.07c1-.66,2.2-.9,3.24-1.48A4,4,0,0,0,56,72.21Z"/><path class="cls-3" d="M50.59,75.72a9.54,9.54,0,0,0,4,.07c1.77-.24,3.51-.65,5.26-1,.06.44-.23.63-.58.69a38,38,0,0,1-8.65.79c-.22,0-.51,0-.54-.24S50.37,75.74,50.59,75.72Z"/><path class="cls-8" d="M43.66,21.51a4.8,4.8,0,0,0-2.21,2.13A2.48,2.48,0,0,1,40,21.15a1.32,1.32,0,0,1,1.36-1.35A2.51,2.51,0,0,1,43.66,21.51Z"/><path class="cls-3" d="M48.72,31.24a2.07,2.07,0,0,0,1.75-.15,40.35,40.35,0,0,0,5.86-4.21,1.31,1.31,0,0,0,.51-1.24,4.13,4.13,0,0,0-1.88-2c-.6-.21-1.07.19-1.57.61A29.88,29.88,0,0,1,49.61,27a0,0,0,0,1,0,0,24.94,24.94,0,0,1-2.13-2.11,23.64,23.64,0,0,1-1.74-2C45,22,44.32,21.11,43,21.24s-1.47,1.11-1.82,2h0a.18.18,0,0,1,.09.26,32.48,32.48,0,0,0,6.88,7.43,2.39,2.39,0,0,0,.59.32Z"/><path class="cls-9" d="M67.89,13.54a6,6,0,0,0,.23-7.88,3.85,3.85,0,0,0-1.75-1.3,3.39,3.39,0,0,0-2.6.24,1.1,1.1,0,0,1-1.24-.13c-3.37-2.08-7.05-1.22-8.91,2.08-1.29,2.3-.79,4.43,1.48,6a2,2,0,0,1,2.14-1.91c.57-.21.9.28,1.33.46a14.34,14.34,0,0,0,7.32,1c.28,0,.86-.28.84.16C66.68,13.21,67.31,13.31,67.89,13.54Z"/><path class="cls-8" d="M67.89,13.54c-.58-.23-1.21-.33-1.16-1.25,0-.44-.56-.19-.84-.16a14.34,14.34,0,0,1-7.32-1c-.43-.18-.76-.67-1.33-.46a3.24,3.24,0,0,1,0,1.72,12.93,12.93,0,0,0,.51,5.7,2.2,2.2,0,0,0,2.05,1.59c.62,0,.82.26.86.88s-.22.88-.79.91c.29.08.72-.13.78.41a1.42,1.42,0,0,0,1.16,1.26c.78.22,1.32-.28,1.82-.81.27-.27.26-.78.73-.87-.58-.54-.54-2.4.07-2.81A5.77,5.77,0,0,0,66,17.26a1.42,1.42,0,0,1,.64-.49C68.59,16.05,68.87,15.33,67.89,13.54Z"/><path class="cls-10" d="M67.34,43.55a47.56,47.56,0,0,1-10.19.24c-.55,0-1.13-.34-1.66.1,0,.36,0,.72.08,1.08.61-.4,1.29-.17,1.94-.17l8.7,0c.43,0,.83-.23,1.27-.16l-.08-.39,0-.2Z"/><path class="cls-3" d="M74.56,33.25c.94-1.87-2.12-6.53-4-9.51a.19.19,0,0,1-.19-.18h0c-.92,0-1.9-.23-2.51.78s-.2,2,.37,2.95a23.23,23.23,0,0,1,1.08,2.25c.3.64.55,1.29.79,1.94a34.94,34.94,0,0,1-4.65.71c-.7.06-1.35.11-1.6.7a4,4,0,0,0,.28,2.79,1.49,1.49,0,0,0,1.36.51,42.55,42.55,0,0,0,6.86-1.07,3.15,3.15,0,0,0,1.8-1.22A5.76,5.76,0,0,0,74.56,33.25Z"/><path class="cls-8" d="M64.11,35.41a3.82,3.82,0,0,1-.29-2.73,2.6,2.6,0,0,0-2.75.69,1.1,1.1,0,0,0,.15,1.7A2.83,2.83,0,0,0,64.11,35.41Z"/><path class="cls-11" d="M70.48,23.56a.17.17,0,0,0,.19.17C70.66,23.61,70.6,23.55,70.48,23.56Z"/><path class="cls-9" d="M67.37,44l0,.2Z"/><path class="cls-9" d="M68.44.71A22.82,22.82,0,0,1,72.55,0a2.42,2.42,0,0,1,1.84.58L77.73,7.2l-8-4h-2l-1,1.31-1.39-.33.32-1.62A19.49,19.49,0,0,1,68.44.71Z"/><text class="cls-12" transform="translate(56.58 73.74) scale(0.8 1)"><tspan class="cls-13">P</tspan><tspan x="0.61" y="0">ans</tspan></text><path class="cls-14" d="M63.84,28.19a1.27,1.27,0,0,1,0,.2,2.17,2.17,0,0,1-.07.35,1.34,1.34,0,0,1-.09.26l-.1.2-.09.15-.14.18-.09.1c-.06.06-.13.1-.19.15a1.67,1.67,0,0,1-.16.12.91.91,0,0,1-.17.09.75.75,0,0,1-.18.08l-.22.07-.17,0h-.37l-.21,0-.17,0-.11,0-.16-.06L61,30,60.89,30l-.22-.14a1.73,1.73,0,0,1-.21-.17l-.12-.13a1.15,1.15,0,0,1-.14-.17,2.25,2.25,0,0,1-.12-.21,1.63,1.63,0,0,1-.11-.23s0-.07,0-.11a1.16,1.16,0,0,1,0-.18l0-.14h0c0-.06,0-.12,0-.18a.34.34,0,0,0,0-.1,1.64,1.64,0,0,1,0-.23c0-.09,0-.18,0-.26s0-.09,0-.13a1.57,1.57,0,0,1,.09-.23l.06-.11a.75.75,0,0,1,.07-.12,1.18,1.18,0,0,1,.13-.18l.14-.15.17-.14.15-.11a.33.33,0,0,1,.1-.06,1.51,1.51,0,0,1,.18-.09,1.25,1.25,0,0,1,.25-.09l.21-.06.18,0h.26a1.33,1.33,0,0,1,.28,0l.27.08a1.45,1.45,0,0,1,.22.09,1.63,1.63,0,0,1,.38.24l.13.1.16.17.12.17a.39.39,0,0,1,.08.14c0,.06.07.11.1.18a.85.85,0,0,1,.06.17s0,.06,0,.08a.74.74,0,0,1,0,.14.77.77,0,0,1,0,.15A2.12,2.12,0,0,1,63.84,28.19Zm-.21.78s0,0,0,0a1.35,1.35,0,0,0,.1-.33.27.27,0,0,0,0-.12,1.1,1.1,0,0,1,0-.18,1.2,1.2,0,0,1,0-.19c0-.05,0-.11,0-.17h0a1.13,1.13,0,0,0,0-.18.83.83,0,0,1,0-.15.41.41,0,0,1,0-.08s0-.07,0-.11-.06-.08-.07-.14,0-.11-.09-.17-.1-.14-.15-.21l-.15-.15a1.56,1.56,0,0,0-.2-.16l-.1-.07-.13-.06-.18-.08-.3-.09a.85.85,0,0,0-.22,0,2.36,2.36,0,0,0-.46,0l-.25.05-.24.08-.1,0-.13.07,0,0-.09,0c-.08.05-.14.12-.22.18a.68.68,0,0,0-.12.12s0,0,0,0h0a.81.81,0,0,0-.09.1,1,1,0,0,0-.12.17.75.75,0,0,0-.07.12s0,.06-.05.09,0,.05,0,.08v0a.5.5,0,0,0-.05.13.24.24,0,0,0,0,.08l0,.1a1,1,0,0,0,0,.17s0,.06,0,.09a2.44,2.44,0,0,0,0,.38,1.13,1.13,0,0,0,0,.18,1.07,1.07,0,0,0,.08.27s0,.05,0,.07l.06.12a.61.61,0,0,0,.07.14l.11.16.18.21a2.56,2.56,0,0,0,.37.3L61,30l.2.08a1.39,1.39,0,0,0,.19.06l.11,0,.12,0a2,2,0,0,0,.25,0,.66.66,0,0,0,.14,0l.22,0,.18-.05.22-.07a1,1,0,0,0,.21-.11,2.2,2.2,0,0,0,.3-.19.8.8,0,0,0,.13-.13l.12-.13.08-.1a1.88,1.88,0,0,0,.12-.18.14.14,0,0,0,0-.11s0,0,0,0,0,0,0-.05Z"/><path class="cls-15" d="M60.4,26.86a.68.68,0,0,1,.12-.12c.08-.06.14-.13.22-.18l.09,0,0,0,.13-.07.1,0,.24-.08.25-.05a2.36,2.36,0,0,1,.46,0,.85.85,0,0,1,.22,0l.3.09.18.08.13.06.1.07a1.56,1.56,0,0,1,.2.16l.15.15c.05.07.11.14.15.21s.09.11.09.17.06.09.07.14,0,.07,0,.11a.41.41,0,0,0,0,.08.83.83,0,0,0,0,.15,1.13,1.13,0,0,1,0,.18h0c0,.06,0,.12,0,.17a1.2,1.2,0,0,0,0,.19,1.1,1.1,0,0,0,0,.18.27.27,0,0,1,0,.12,1.35,1.35,0,0,1-.1.33s0,0,0,0h0s0,0,0,.05,0,0,0,0a.14.14,0,0,1,0,.11,1.88,1.88,0,0,1-.12.18l-.08.1-.12.13a.8.8,0,0,1-.13.13,2.2,2.2,0,0,1-.3.19,1,1,0,0,1-.21.11l-.22.07-.18.05-.22,0a.66.66,0,0,1-.14,0,2,2,0,0,1-.25,0l-.12,0-.11,0a1.39,1.39,0,0,1-.19-.06L61,30l-.15-.08a2.56,2.56,0,0,1-.37-.3l-.18-.21-.11-.16a.61.61,0,0,1-.07-.14L60,28.94s0-.05,0-.07a1.07,1.07,0,0,1-.08-.27,1.13,1.13,0,0,1,0-.18,2.44,2.44,0,0,1,0-.38s0-.06,0-.09a1,1,0,0,1,0-.17l0-.1a.24.24,0,0,1,0-.08.5.5,0,0,1,.05-.13v0s0-.05,0-.08,0-.06.05-.09a.75.75,0,0,1,.07-.12,1,1,0,0,1,.12-.17.81.81,0,0,1,.09-.1h0S60.4,26.87,60.4,26.86Zm3.33,1.06a.28.28,0,0,0,0-.09s0,0,0-.08a.51.51,0,0,0,0-.17l-.06-.14s0,0,0,0h0s0-.09-.05-.11a.05.05,0,0,1,0,0s0,0,0,0h0s0,0,0,0a.61.61,0,0,0-.07-.1L63.3,27a.7.7,0,0,1-.08-.1s0-.05-.06-.05h0s0,0-.07-.06,0,0,0,0l0,0s0,0,0,0,0-.08-.11-.07h0a1.74,1.74,0,0,0-.18-.11h0l-.1,0a.1.1,0,0,0,0-.05l-.12,0-.18-.05a1,1,0,0,0-.24,0h-.18a.75.75,0,0,0-.21,0s-.08,0-.11,0h0c-.06,0-.11,0-.16,0h-.06l-.11,0-.12.05-.09,0,0,0-.06.05h0l-.14.11a.05.05,0,0,0-.05,0s0,0,0,0,0,0,0,0,0,0-.08.06,0,0,0,0,0,0,0,0a.1.1,0,0,0,0,.05s-.05,0-.05.07v0a.1.1,0,0,0,0,.05h0s0,0,0,0,0,.05,0,.08,0,0,0,0,0,0,0,0,0,0,0,.05,0,0,0,.06,0,0,0,.06h0l-.06.15a.74.74,0,0,1,0,.14s0,.07,0,.11,0,0,0,0v.06a1.52,1.52,0,0,0,0,.21v.22s0,0,0,0a1.54,1.54,0,0,0,0,.3,1.73,1.73,0,0,0,.11.32,2,2,0,0,0,.18.32l.14.19s0,.05.07.06,0,0,0,.06a2,2,0,0,0,1,.5l.29,0,.3,0,.25-.05.24-.08a1.87,1.87,0,0,0,.39-.22,2.11,2.11,0,0,0,.23-.19.65.65,0,0,0,.13-.16l0,0,.09-.12,0,0h0l0,0a.31.31,0,0,0,.05-.12c0-.05,0-.1,0-.14a.21.21,0,0,0,0-.07.14.14,0,0,0,0-.07,1.17,1.17,0,0,0,.06-.2,1.94,1.94,0,0,0,0-.48v0a.09.09,0,0,0,0,0h0A.12.12,0,0,0,63.73,27.92Z"/><path class="cls-16" d="M60.4,26.86s0,0,0,0S60.39,26.86,60.4,26.86Z"/><path class="cls-16" d="M60.81,26.56h0l.06-.05,0,0,.09,0,.12-.05.11,0h.06s.1-.05.16,0h0s.07,0,.11,0a.75.75,0,0,1,.21,0H62a1,1,0,0,1,.24,0l.18.05.12,0a.1.1,0,0,1,0,.05l.1,0h0a1.74,1.74,0,0,1,.18.11h0c.06,0,.08,0,.11.07s0,0,0,0l0,0s0,0,0,0,.05,0,.07.06h0s.05,0,.06.05a.7.7,0,0,0,.08.1l.11.15a.61.61,0,0,1,.07.1s0,0,0,0l0,0h0s0,0,0,0h0s-.08,0-.12,0,0,0,0,0a.36.36,0,0,0,.07-.1s0,0,0,0h-.1s0,0,0,0a0,0,0,0,0,0,.05h-.06s0,0-.06,0l-.05.06s0,0,0,0-.07,0-.07,0,0,0,0,0v0h0s0,0,0,0,0,.05,0,.07a.06.06,0,0,1,0,0s0-.07,0-.11v0s0,0,0,0,0,0,0,0h0s0,0,0,.07a.43.43,0,0,0,0,0s0,0-.06,0-.07,0-.11,0h0s0,0,0,0h0s0,0,0,0h0l0,0s0,0,0,0v0s0,0,0,0,0,0,0,0,0,0,0,0a.31.31,0,0,1-.1-.05l-.07,0a.11.11,0,0,0-.12,0l-.06.05s0,0,0,.06,0,.08-.07.1,0,0,0-.06,0,0,0,0a0,0,0,0,0,0,0s0,0,0,0,0,0-.06,0h0l-.07.05,0,0s0,0,0,0,0,0,0,0,0,0-.06,0a.07.07,0,0,1-.06,0l-.09,0s-.06,0-.09,0-.07,0-.11,0a.07.07,0,0,1-.06,0h0l0-.11s0,0,0,0a0,0,0,0,0,0,0h0s0-.05,0-.06a0,0,0,0,0,0,0h0l.06,0s0,0,0,0,0,0,0,0h0s0,0,0,0a.08.08,0,0,1,0,0,.08.08,0,0,0,0,0,.09.09,0,0,0,0-.06V27s0,0,0,0a.11.11,0,0,0,0-.08s0,0,0,0,0,0,0-.06a.11.11,0,0,0,.09-.07s0,0,0-.05,0,0-.05,0,0,0,0,0a.08.08,0,0,1,0-.08h0s0,0,0,0-.06,0-.07-.07h0s0,0,0,0v0h-.08a.07.07,0,0,0-.06,0s0,0,0,0h0s0,0,0,0,0,0,0,0,0,0,0,0v0s0,0,0,0,0,0,0,0h0s0,0,0,0,0,0,0,0h0s0,0,0,0a0,0,0,0,1,0,0,0,0,0,0,0,0,0l-.05.07a0,0,0,0,0,0,0l0,0s0,0,0,.06h0s0,0,0,0,0,0,0,0a0,0,0,0,0,0,0l0,0s0,0,0,0,0,0,0,0h0s0,0,0,0h.09l0,.06a.3.3,0,0,0,.06.18s0,.05,0,.09a0,0,0,0,0,0,.06s0,.06,0,.08a.13.13,0,0,0,.05.09l0,0H61a.1.1,0,0,1-.09,0,.23.23,0,0,0-.12,0s0,0,0,0,0,0,0,0a.2.2,0,0,1,.08.1s0,0,0,0,0,0,.05.05,0,0,0,0,0,0,0,0,0,0,0,0,0,0-.06,0,0,0,0,0l0,0s0,0,0,0h0s0,0-.05,0h0s0,0,0,0,0-.07-.08-.07h0a.05.05,0,0,0,0,0s0,0,0,0l-.06,0h-.05s0,0-.07,0,0,0,0,0-.07.06-.06.11a.06.06,0,0,0,0,.06,0,0,0,0,1,0,0,.11.11,0,0,1-.1-.1.1.1,0,0,1,.07-.1s0,0,0-.07h.06s0,0,0,0,0-.07,0-.1,0,0,0,0,0,0,0,0,0,0,0,0h0s0,0,0,0,0,.08,0,.09,0,0,0,0l.1.07s0,0,0,0,0-.05,0-.07,0,0,0,0h0s0,0,0,0h0s0,0,0,0,0-.05,0-.06v0l0,0h0s0-.06,0-.07,0,0,0,0v0s0,0,0,0,0,0,0,0,0,0,0,0h0s0,0-.09,0,0,0,0,0a0,0,0,0,0,0,0,0,0,0,0,1,0,0s0,0,0-.07,0,0,0,0a0,0,0,0,0,0,0s0-.06,0-.09a.14.14,0,0,1,0-.06s0-.08,0-.1a.27.27,0,0,0,.07-.08,0,0,0,0,0,0-.06h0s0,0,0,0,0,0,0,0S60.84,26.56,60.81,26.56Zm1.18.31h0l0,0h0s0,0,0,0h0s0,0,0,0l0,0s0,0,0,0v0s0,.06,0,.07,0,0,0,0,0,0,0,.06h0v0h0s0,0,0,0h0a0,0,0,0,0,0,0A.13.13,0,0,1,62,27a.11.11,0,0,0,0-.08h0s0,0,0,0,0,0,0,0v0h0a0,0,0,0,0,0-.05,0,0,0,0,0,0,0s0,0,0,0h0s0,0,0,0,0,0,0,0a0,0,0,0,0,0,0v0s0,0,0,0h0Zm.47.47s0,0,0,0,0,0,0,0a.14.14,0,0,1,0-.11s0,0,0-.05,0,0,.07-.06,0,0,0,0a0,0,0,0,0,0,0h0l0,0h0a.13.13,0,0,0-.09,0s0,0,0,0h0a.54.54,0,0,0,0,.11,0,0,0,0,0,0,.06Zm.6-.53s0,0,0,0,0,0,0,0,0,0,0,0l0,0s0,0,0,0,0,0,0,0a0,0,0,0,1,0,0s0,0,0,0,0,0,0,0h0s0,0,0-.07a0,0,0,0,0-.06,0h0v0s0,0,0,0Zm-.06,0h0s0,0,0,0Z"/><path class="cls-17" d="M63.43,29.26l-.09.12,0,0s0,0,0,0,0,0,0,0a.09.09,0,0,0-.06.06,0,0,0,0,1,0,0,.08.08,0,0,1,0,0s0,0,0,0,0,0,0,0h-.14l-.19.06a1.8,1.8,0,0,1-.21.08c-.06,0-.12,0-.17.06h0s0,0-.06-.05a.11.11,0,0,0-.07,0s0,0,0,0,0,0,0,0-.07,0-.09,0h-.07a.1.1,0,0,0-.05,0l-.07,0h0s-.06,0-.1,0,0,0,0,0a.83.83,0,0,1,0,.15s0,0,0,.07a0,0,0,0,1,0,0,.05.05,0,0,0,0,0s0,0,0,0a.08.08,0,0,0-.07,0s-.08,0-.13,0a.05.05,0,0,1,0,0,0,0,0,0,0,0,0l0,0a.58.58,0,0,1-.17-.06.06.06,0,0,0-.08,0l0,0a.21.21,0,0,0-.11,0,.32.32,0,0,1-.14,0,0,0,0,0,0,0,0l0,0s0,0,0,0,0,0,0,0a0,0,0,0,0,0-.05s0,0,0,0,0-.06,0-.09h0s0,0,0,0h0a.06.06,0,0,0,0,0h0s0,0,0,0,0,0,0-.05a0,0,0,0,0,0,0s0,0,0-.05.09,0,.09-.09a.28.28,0,0,1,0-.13,0,0,0,0,0,0-.07.41.41,0,0,0-.16,0s0,0,0,0h.07s0,0,0,0H61c0-.06,0-.06-.07-.06h0s0,0,0,0h0s0,0,0,0h0l0,0s0,0,0,0h0s0,0,0,0h0s0,0,0,0,.06,0,.08,0,0,0,0,0,0,0,0,0h0a.06.06,0,0,1,0,0s0,0,.05,0l0,0a0,0,0,0,1,.05,0,.09.09,0,0,0,.07,0l0,0s0,0,0,.06h0s0,0,.07,0a.15.15,0,0,0,.11.06h0s.09.07.15.1h.06l.07,0,.07,0a0,0,0,0,1,.06,0h0s0,0,0,0v0h0s0,0,0,.05a.14.14,0,0,1,0,.15s0,.05,0,.07a.12.12,0,0,1,0,.1s0,0,0,0a.12.12,0,0,1,0,.09s0,0,0,0h0a.09.09,0,0,0,.07,0s.05,0,.05-.06l0-.07h0a.09.09,0,0,1,.06-.1s0,0,0,0,0-.06,0-.09,0-.05,0-.06h0s0,0,0,0h0s0,0,.05,0,0,0,0,0l0,0s0,0,0,0v0s0,0,0,0v0s0,0,0,0a0,0,0,0,0,0,0s0,0,0,0,0,0,0,0a.07.07,0,0,0,.06,0s0,0,0,0a.2.2,0,0,0,0,.07s0,0,0,0,0,0,0,0,0,.06.07.07a0,0,0,0,0,0,.05l0,0s0,0,0,0l0,0a.06.06,0,0,1,0-.06.31.31,0,0,0,0-.1.09.09,0,0,1,0-.09v0h0s0-.05,0-.07h0l0,0s0,0,0,.05,0,0,0,.05a.25.25,0,0,0,0,.12h0s0,0,0,.06,0,0,0,0,0,0,0,0,0,0,0,0A.05.05,0,0,0,63,29a0,0,0,0,0,0,0s0,0,0,0,0,0,.06-.06a.12.12,0,0,1,.07-.05s0,0,0,0,0,0,0,0h0s0,0,0,0h0l0,0s.06,0,.08,0,0,0,0,0,0,0,0,0h0a.06.06,0,0,1,.07,0s0,0,.05,0,0,0,0,0v0s0,0,0,0a.05.05,0,0,1,0,.08s0,0,0,0h0a0,0,0,0,0,0,0h0V29h0s0,0-.05,0h0s0,0,0,0,0,0,0,0h0a.06.06,0,0,0-.06,0,.09.09,0,0,0,0,.07s0,.07,0,.09,0,0,0,0A.08.08,0,0,1,63.43,29.26Zm-1-.21s0,0,0,0,0,0,0-.05,0,0,0,0,0,0,0,0,0,0,0,0,0,0,0,0a.06.06,0,0,1,0,.06s0,0,0,.05,0,0,0,0Zm-.59-.35s0,0-.06,0Zm.68,0v0s0,0,0,0a0,0,0,0,0,0,0A0,0,0,0,0,62.45,28.68Zm-.1.12a0,0,0,0,0,0,0,0,0,0,0,0,0,0h0Zm-1.17-.07h0s0,0,0,0h0Zm1.29,0Z"/><path class="cls-14" d="M60.8,29.53s0,0,0,0,0,0,0,0l0,0a0,0,0,0,1,0,0,.32.32,0,0,0,.14,0,.21.21,0,0,1,.11,0l0,0a.06.06,0,0,1,.08,0,.58.58,0,0,0,.17.06l0,0a0,0,0,0,1,0,0,.05.05,0,0,0,0,0s.08,0,.13,0a.08.08,0,0,1,.07,0s0,0,0,0a.05.05,0,0,1,0,0,0,0,0,0,0,0,0s0-.05,0-.07a.83.83,0,0,0,0-.15s0,0,0,0,.07,0,.1,0h0l.07,0a.1.1,0,0,1,.05,0h.07s.06,0,.09,0,0,0,0,0,0,0,0,0a.11.11,0,0,1,.07,0s0,0,.06.05h0s.11,0,.17-.06a1.8,1.8,0,0,0,.21-.08l.19-.06h.14s0,0,0,0,0,0,0,0a.08.08,0,0,0,0,0,0,0,0,0,0,0,0,.09.09,0,0,1,.06-.06s0,0,0,0,0,0,0,0a.65.65,0,0,1-.13.16,2.11,2.11,0,0,1-.23.19,1.87,1.87,0,0,1-.39.22l-.24.08-.25.05-.3,0-.29,0a2,2,0,0,1-1-.5s0,0,0-.06,0,0,0,0l0,0s0,0,.06,0,0,0,0,0a0,0,0,0,0,0,0,0,0,0,0,1,0,0s0,0,0,0a.1.1,0,0,0,0,.08s0,0,0,0,0,0,0,0,0,0,0,0,0,0,0,0Zm0,.23h0s.07-.07.11-.1,0,0,0,0h0a.14.14,0,0,1-.08.07s0,0-.05,0a0,0,0,0,0-.07,0s0,0,0,0h0s0,0,0,0S60.73,29.76,60.75,29.76Zm0-.1Z"/><path class="cls-17" d="M60.7,29.53a0,0,0,0,0,0,0,0,0,0,0,1,0,0s0,0,0,0,0,0-.06,0l0,0s0,0,0,0-.05,0-.07-.06l-.14-.19a2,2,0,0,1-.18-.32,1.73,1.73,0,0,1-.11-.32,1.54,1.54,0,0,1,0-.3s0,0,0,0,0,0,0,0H60s0,0,0,0,0,0,0,0,0,0,0,0,0,0,0,0,0,0,0,0h0s0,.06,0,.06,0,0,0,0h0a.15.15,0,0,1,.06.09s0,0,0,0,0,0,.08,0h.07l.07,0s0,0,0,0a0,0,0,0,0,0,0h0l.06,0s0,0,0,0a.07.07,0,0,1,0,.08s0,0,0,.07l0,.09s0,.06.07.07,0,0,0,.08v0a.65.65,0,0,1,0,.2s0,.05,0,.08a.14.14,0,0,1,0,.09A.2.2,0,0,0,60.7,29.53Z"/><path class="cls-18" d="M60.67,27.4s0,0,0,0h0s0,0,0,0a.09.09,0,0,1,0,.11h0s0,0,0,0h0s0,0,0,.07a.1.1,0,0,0-.07.1.11.11,0,0,0,.1.1h0s.08,0,.09.09h0s0,0,0,0,0,0,0,0a0,0,0,0,1,0-.06s0,0,0,0a.25.25,0,0,1,0-.12s0,0,0,0h0s.07,0,.08.07,0,0,0,0h0s0,0,.05,0h0s0,0,0,0l0,0s0,0,0,0,0,0,.06,0,0,0,0,0h0a.08.08,0,0,1-.08,0s0,0,0,0h0s0,0,0,0h0l0,0h0a0,0,0,0,0,0,0h0s0,0,0,0,0,0,0,0,0,0,0,0a0,0,0,0,1,0,0s0,0,0,0,0,0,0,0a.07.07,0,0,1,0-.06s0,0,0,0,0,0,0-.06,0,0,0,0,0,0,0,0l-.13.09a2,2,0,0,1-.23.18s-.07,0-.09.07h0l0,0a.12.12,0,0,0-.08,0h0s0,0,0,0h0A.27.27,0,0,1,60,28h0s0,0,0,0a.23.23,0,0,1-.07-.07v-.06s0,0,0,0A1.47,1.47,0,0,1,60,27.5l0-.08s0,0,.07,0,0,0,0,0h.05s0,0,0,0a0,0,0,0,0,0,0s0,0,0,0h.13s0,0,0-.06l0,0s0-.05,0-.08a.13.13,0,0,0,0-.06h0a0,0,0,0,0,0,0h0s0,0,0,.05,0,0,0,.05,0,.06,0,.09,0,0,0,0,0,0,0,0v0s0,0,0,0h0s0-.05,0-.07,0,0,0,0-.07-.05-.06-.1,0,0,0-.05h0s0,0,0,0,0,0,0,0,0,0,0,0,0,0,0,0,0,0,0,0,0,0,0-.05h0s0,0,0,0,0,0,0,0h0s0,0,0,0,0,0,0,0,0,0,0,0,0,0,0,.07h0s0,0,0,0v0s0,0,0,.05h0s0,0,0,0,0,0,0,0h0s0,0,0,0,0,.05,0,.07,0,0,0,0l-.1-.07s0,0,0,0,0-.07,0-.09,0,0,0,0h0S60.67,27.41,60.67,27.4Z"/><path class="cls-19" d="M63.43,28.79s0,0,0,0,0,0-.05,0a.06.06,0,0,0-.07,0h-.08a.06.06,0,0,1-.06-.05.21.21,0,0,0,0-.06s0,0,0,0a.07.07,0,0,0,0-.06,0,0,0,0,1,0-.05s0,0,0,0a0,0,0,0,1,0,0s0,0,0,0,0,0,0,0,0,0,0-.06,0-.05,0-.07h0l.1,0a.14.14,0,0,0,.06-.14v0a0,0,0,0,1,0,0,0,0,0,0,0,0,0s0,0,0,0,0,0,0,0,0,0,0,0h0s0,0,0,0h0s0,0,0,0h0s0,0,0,0,0,0,0,0,0,0,0,0,0,0,0-.05a.07.07,0,0,0,.1,0s0,0,0-.05,0,0,0,0,0,0,0,0a1.94,1.94,0,0,1,0,.48,1.17,1.17,0,0,1-.06.2h0s0,0,0,0h0s0,0,0,0,0,0,0,0h0s0,0,0,0h0a0,0,0,0,0,0,0v0a.05.05,0,0,0,0,0,0,0,0,0,0,0,0h.05l.08.05a.21.21,0,0,1,0,.07.08.08,0,0,0-.09,0s0,0,0,0h0v-.06s0,0,0,0l0,0s0,0,0,0a.05.05,0,0,0,0-.08s0,0,0,0h0s0,0,0,0v0s-.07,0-.07.05,0,0,0,0,0,0,0,0Zm-.11-.11h0l-.07,0,0,0s0,.05.06.05h0s0,0,0,0a0,0,0,0,0,0,0,.12.12,0,0,0,0-.08s0,0,0,0h0Zm.16,0s0,0,0,0a.18.18,0,0,1,0-.12,0,0,0,0,0,0,0s0,0,0,0,0,0,0,0,0,.06,0,.08,0,0,0,0S63.46,28.68,63.48,28.65Z"/><path class="cls-20" d="M63.27,27.06s0,0,0,0a.36.36,0,0,1-.07.1l0,.05a.07.07,0,0,0,.06,0s.08,0,.12,0h0s0,0,0,0h0l0,0h0s0,.07,0,.09,0,0,0,0,0,.05,0,.06h0a.42.42,0,0,1,0,.1s0,.07,0,.1v0s0,0,0,0h-.25s0,0-.06,0a1.09,1.09,0,0,1-.18,0h0s0,0,0,0h0a.28.28,0,0,1,.18,0h0s0,0,0,0h0s0-.05,0-.06a0,0,0,0,0,0,0,.05.05,0,0,1,0,0,.1.1,0,0,0,0-.05l-.06-.08a1.8,1.8,0,0,0-.19-.2s0,0,0,0a.05.05,0,0,1,0,0s.05,0,.06,0h0s0,0,.06,0h.1Z"/><path class="cls-16" d="M60.39,27.45h-.1s0,0,0,0l0,0h0a.06.06,0,0,1,0,0h0a0,0,0,0,0,0,0h0a0,0,0,0,0,0,0h0s0,0,0,0,0,0,0-.05,0,0,0,0,0,0,0-.06l0,0s0,0,0,0h0s0,0,0,0h0s0,0,0,0,0,0,0,0,0,0,0,0,0,0,0,0h0s0,0,0,0h0s0,0,0,0,0,0,0-.05a.1.1,0,0,1,0-.05v0s0-.05.05-.07a.1.1,0,0,1,0-.05h0v0s0,.05,0,0,0,0,0,0,0,0,0,0h0s0,0,0,0,0,0,0,0h0s0,0,.06,0,0,0,0,0h0s0,0,0,0,0,0,0,0l0,0h0a0,0,0,0,0,0,0h0s0,0,0,0h0v0s0,0,0,0,0,0,0,0h0l0,0s0,0,0,0h0s0,0,0,0h0s0,0,0,.06,0,.06,0,.08a0,0,0,0,1,0,.06A0,0,0,0,0,60.39,27.45Zm0-.32Zm0,0Z"/><path class="cls-21" d="M63.46,29h0s0,0,0,0a.08.08,0,0,1,.09,0s0,.09,0,.14l0,0-.08.14h-.1s0,0,0,0v0a.64.64,0,0,0,0-.07c0-.06,0-.08.06-.09h0a.1.1,0,0,0,.07,0l0,0Z"/><path class="cls-20" d="M60.57,27.07s0,0-.06,0h0s0,0,0,0,0,0,0,0,0,0,0,0,0,0,0,0,0,0,0,0,0,0,0,0,0,0,0,0h0a0,0,0,0,0,0,0,0,0,0,0,0,0,0s0,0,0,0,0,0,0,0,0,0,0,0h0s0,0,0,0,0,0,0,0,0,0,0,0l0,0s0,0,0,0,0,0,0,0l0,0,.14-.11s0,0,0,0,0,0,0,0,0,0,0,0h0a0,0,0,0,1,0,.06.27.27,0,0,1-.07.08s0,.06,0,.1a.14.14,0,0,0,0,.06s0,0,0,0,0,0,0,0,0,0,0,0Z"/><path class="cls-19" d="M59.94,27.89A.23.23,0,0,0,60,28s0,0,0,0h0a.27.27,0,0,0,0,.15s0,0,0,.05a.39.39,0,0,1,.08.1,0,0,0,0,0,0,0s0,0,0,0,0,0,0,0,0,0,0,0,0,0,0,0,0,0,0,0H60s0,0,0,0,0,0,0,0,0,0,0,0V28.1A1.52,1.52,0,0,1,59.94,27.89Z"/><path class="cls-22" d="M63.53,28.25s0,0,0,0h0s0-.05,0-.07,0,0,0,0,0,0,0,0h0s0,0,0,0h0s0,0,0,0h0s0,0,0-.08V28s0,0,0,0h0a0,0,0,0,0,0,0h0a0,0,0,0,0,0,0h0s0,0,0,0h0v0s0,0,0,0,0,0,0,0,0,0,0,.05,0,0,0,0,0,0,0,0,0,0,0,0,0,.06-.09.07,0,0,0,0,0,0,0,0h0s0,0,0,.05,0,0,0,0,0,0,0,0,0,0,0,0,0,0,0,0h0S63.55,28.26,63.53,28.25Zm.17-.15s0,0,0,0,0,0,0,0a.05.05,0,0,0,0,0s0,.05,0,.06,0,0,0,0Z"/><path class="cls-23" d="M60.6,26.78s0,0,0,0,0,0,0,0,0,0,0,0h0s0,0,0,0,0,0,0,0,0,0,0,0a0,0,0,0,1,0,0,0,0,0,0,1,0,0h0s0,0,0,0,0,0,0,0,0,0,0,0,0,0,0,0,0,0,0,0,0,0,0,0,0,0,0,0,0,0,0,0l0-.05s0-.06,0-.07h0s0,0,0,0,0,0,0,0h0s0-.06,0,0h0s0,0,0,0Z"/><path class="cls-23" d="M60.22,27.41a.06.06,0,0,0,0,0h-.05s0,0,0,0,0,0-.07,0h0a.05.05,0,0,1,.08,0s0,0,0,0,0,0,0,0a.18.18,0,0,1-.05-.07s0-.05,0-.06h0s0,0,0,.05h0a0,0,0,0,0,0,0S60.19,27.41,60.22,27.41Z"/><path class="cls-16" d="M60.07,27.41h0l0,.08a1.47,1.47,0,0,0-.08.28s0,0,0,0,0,0,0,0,0-.08,0-.11a.74.74,0,0,0,0-.14l.06-.15Z"/><path class="cls-24" d="M63.54,28.76h0s0,0,0,0h0a.14.14,0,0,1,0,.07l-.08-.05Z"/><path class="cls-16" d="M63.66,27.63s0-.06,0-.1a.42.42,0,0,0,0-.1s0,0,0,0l.06.14a.51.51,0,0,1,0,.17h0s0,0,0,0,0,0,0-.07Z"/><path class="cls-19" d="M63.69,27.75h0s0,.05,0,.08-.06,0-.08,0h0V27.8h0Z"/><path class="cls-16" d="M60.12,27.34a.18.18,0,0,0,.05.07s0,0,0,0,0,0,0,0a.05.05,0,0,0-.08,0S60.09,27.34,60.12,27.34Z"/><path class="cls-23" d="M63.59,27.42s0,0,0-.06,0,0,0,0,0-.06,0-.09,0,0,0,0a.05.05,0,0,0,0,0S63.58,27.38,63.59,27.42Z"/><path class="cls-18" d="M60.28,27.07s0,0,0,.05l0,0h0s0,0,0,0,0,0,0-.07Z"/><path class="cls-23" d="M60.67,26.67l0,0s0,0,0,0,0,0,0,0l0,0h0s0,0,0,0h0s0,0,0,0,0,0,0,0A.05.05,0,0,1,60.67,26.67Z"/><path class="cls-16" d="M60.57,26.75h0s0,0,0,0,0,0,0,0h0c-.05,0,0,0,0,0h0s0,0,0,0S60.53,26.75,60.57,26.75Z"/><path class="cls-22" d="M63.64,27.85s0,0,.08,0a.28.28,0,0,1,0,.09h0a.11.11,0,0,0,0-.05s0,0,0,0,0,0,0,0Z"/><path class="cls-16" d="M63.46,29.22l.08-.14,0,0a.31.31,0,0,1-.05.12l0,0Z"/><path class="cls-23" d="M60.27,27.07s0,0,0,.07,0,0,0,0,0,0,0,0,0-.05,0-.08S60.25,27.06,60.27,27.07Z"/><path class="cls-23" d="M60.17,27.23s0,0,0,0,0,0-.07,0,0,0,0,0h0S60.13,27.23,60.17,27.23Z"/><path class="cls-22" d="M63.36,29.25h.09l0,0A.08.08,0,0,0,63.36,29.25Z"/><path class="cls-19" d="M63.75,28.06h0s0,0,0,0A.09.09,0,0,1,63.75,28.06Z"/><path class="cls-19" d="M63.73,27.93h0a.12.12,0,0,1,0,.08,0,0,0,0,1,0,0S63.72,28,63.73,27.93Z"/><path class="cls-16" d="M60.42,26.88s0,0,0,0h0l0,0Z"/><polygon class="cls-14" points="63.63 28.97 63.62 28.96 63.63 28.97 63.63 28.97"/><path class="cls-18" d="M63.64,27.8h0l0,0s0,0,0,0,0,0,0,0,0,0,0,0,0,.07,0,.1h0l0,0h0s0,0,0,0h0l-.06.05s0,0,0,0,0,.05,0,.07,0,0,0,0a.05.05,0,0,0,0-.05h0s0,0,0,0h0a0,0,0,0,0,0,0h0s0-.06,0-.08L63.26,28a.11.11,0,0,0,0-.05h0s0,0,0,.06a.17.17,0,0,1-.05.13s0,0,0,0v0s0,.07,0,.11a0,0,0,0,1,0,0s0,0,0,0v-.05h0a.07.07,0,0,1,0,.05.08.08,0,0,0,0,.05s0,0,0,0l0,0h0s0,0,0,0,0,0,0-.06,0,0,0,0,0,0,0,0v0l-.09,0-.09-.06-.09-.08L62.5,28h0l-.19.08s0,0,0-.06l-.06,0a0,0,0,0,0-.06,0s0,0,0,0-.05,0-.07,0a0,0,0,0,1,0,0s0-.05-.06-.07,0,0,0,0a.06.06,0,0,0,0,0l0,0s0,0,0,0,0,0,0,0h0l0,0a.06.06,0,0,0-.06,0h0s0,0,0,0,0,0,0,.06h0a.11.11,0,0,1-.08,0s0,0,0,0,0,0,0,0,0,0,0,0,0,0,0,0a0,0,0,0,0,0,0,.13.13,0,0,0,0-.06s0,0,0-.05h0a.07.07,0,0,1,.05,0s0,0,0,0h0s0,0,.06,0a0,0,0,0,0,.06,0h0s0,0,0,0,0-.05.05-.05h0s0,0,0,0,0,0,0,0h0s0,0,0,0h-.06s0,0,0,0a0,0,0,0,1,0,0l0-.07s0,0,0,0l0,0a0,0,0,0,0,0,0l0,.06s0,0,0,0h0s0,0,0,.06h0a.08.08,0,0,0,0,.06h-.06s0,0,0-.06,0,0,0,0h0s0,0,0,0,0-.08,0-.11l0-.06a.13.13,0,0,1,0-.09s0,0,0,0l.06-.05a.11.11,0,0,1,.12,0l.07,0a.31.31,0,0,0,.1.05c0,.05,0,.06-.06.06h0s0,0,0,0h-.1a.17.17,0,0,1,0,.1s0,0,0,0,.06,0,.07-.07h0s0,0,0,0h0l.22.06.31.08H63l0,0a.05.05,0,0,1,0-.06,1.28,1.28,0,0,1,0-.19,1,1,0,0,0,0-.17s0,0,0,0,0,0,0-.05h0a1.8,1.8,0,0,1,.19.2l.06.08a.1.1,0,0,1,0,.05.05.05,0,0,0,0,0,0,0,0,0,1,0,0s0,0,0,.06h0s0,0,0,0h0a.28.28,0,0,0-.18,0h0s0,0,0,0h0a1.09,1.09,0,0,0,.18,0s0,0,.06,0h.25s0,0,0,0v0l0,0s0,.05,0,.07S63.64,27.77,63.64,27.8Zm-.6-.15a0,0,0,0,0,.05,0Z"/><path class="cls-19" d="M61.81,27.87h0s0,0,0,0,0,0,0,0h0s0,0,0,0,0,0,0,0,0,0,0,0,0,0,0-.06v0s0,0,0,0h0s0,0,0,0h0s0,0,0,0h0s0,0,0,0v0s0,0,0,0,0,0,0,0h0s0,0,0,.06,0,0,0,0,0,0,0,0,0,0,0,0,0,0,0,0h0a.14.14,0,0,0,0,.07s0,0,0,0h0s0,0,0,0,0,0,0,0,0,0,0,0a.11.11,0,0,0,.08,0h0s0,0,0-.06h0a.1.1,0,0,1,.09,0l0,0h0s0,0,.06,0,0,0,.06,0h0s0,0,0,0h0v0s0,0,0,0,0,0,0,0h0a0,0,0,0,1,0,0s0,0,0,0h0s0,0,0,0h0s0,0,0,0h0s-.07,0-.1,0h0s0,0,0,0a.08.08,0,0,1-.1,0h0s0,0,0,0a0,0,0,0,0,0,0,.18.18,0,0,0-.14,0s0,0,0,0,0,0,0,0a0,0,0,0,0,0,0s0,.06-.05.09l0,0a.21.21,0,0,0,0,.11s0,.06,0,.08l.07.07c0,.05,0,.05.08,0l.06,0a.07.07,0,0,1,.09,0h0a0,0,0,0,0-.06,0l-.07,0-.07,0h-.06c-.06,0-.1-.07-.15-.1h0a.15.15,0,0,1-.11-.06s0,0-.07,0h0s0,0,0-.06l0,0a.09.09,0,0,1-.07,0,0,0,0,0,0-.05,0l0,0s0,0-.05,0a.06.06,0,0,0,0,0h0s0,0,0,0,0,0,0,0-.05,0-.08,0,0,0,0,0l-.06,0s0,0,0,0h0l-.09,0a.09.09,0,0,1,0-.05s0,0,0,0,0,0,0-.05,0,0,0,0h0l0,0s0,0-.05,0,0-.07,0-.13,0,0,0,0h.07s.08,0,.09,0h0v0s0-.07,0-.08h0l0-.1,0,0s0,0,0,0,0,0,0,0h.06s0,0,0,0,0,0,0,0,0,0,0,0,0,0,.06,0,0,0,0-.05h0s0,0,0,0,0,0,0,0,0,0-.05-.05,0,0,0,0a.2.2,0,0,0-.08-.1s0,0,0,0,0,0,0,0a.23.23,0,0,1,.12,0,.1.1,0,0,0,.09,0h.06s0,0,0,0a.07.07,0,0,0,.06,0s.07,0,.11,0,.06,0,.09,0l.09,0a.07.07,0,0,0,.06,0s0,0,.06,0,0,0,0,0,0,0,0,0l0,0,.07-.05h0s0,0,.06,0,0,0,0,0a0,0,0,0,1,0,0s0,0,0,0,0,0,0,.06l0,.09a.27.27,0,0,0,0,.09A.09.09,0,0,1,61.81,27.87Z"/><path class="cls-20" d="M60.94,27.16l0-.06h-.09s0,0,0,0,0,0,0,0a0,0,0,0,0,0,0s0-.05-.07-.05a0,0,0,0,1,0,0s0,0,0,0,0,0,0,0h0s0,0,0-.06l0,0a0,0,0,0,1,0,0l.05-.07h0c.05,0,.06,0,.06-.07H61s0,0,0,0,0,0,0,0v0s0,0,0,0,0,0,0,0,0,0,0,0h0a.09.09,0,0,0,0,0,.07.07,0,0,1,.06,0h.08v0s0,0,0,0v0s0,0,0,0h0a0,0,0,0,1,0,0l0,0h-.14s0,0,0,0,0,0,0,0l.06,0h0v0s0,0,0,0h0s0,0,0,0,0,0,0,0,0,0,0,.06l0,0s0,0,0,0,0,0,0,0h0s.05,0,.05,0,0,0,0,.05h0s0,0,0,0a0,0,0,0,1,0,0,0,0,0,0,0,0,0,.07.07,0,0,1,0,.06.17.17,0,0,0,0,.07v0a0,0,0,0,0,0,.05v.12a.06.06,0,0,0,0,.06.08.08,0,0,1,0,0s0,0,0,0,0,0,0,.06a0,0,0,0,0,0,0s0,0,0,0a0,0,0,0,0,0,0h-.12s0,0,0,0,0,0-.06,0,0,0,0,0,0,0,0,0,0,0,0,0v0a.12.12,0,0,1,0-.11A.05.05,0,0,0,60.94,27.16Z"/><path class="cls-20" d="M63,27.19s0,0,0,0a1,1,0,0,1,0,.17,1.28,1.28,0,0,0,0,.19.05.05,0,0,0,0,.06l0,0H62.9l-.31-.08-.22-.06h0s0-.05,0,0,.05,0,.06,0h0l0,0s.07,0,.11,0,0,0,0,0h0s0,0,0,0,0,0,0-.06,0,0,0-.06h0s0,0,0,0v.08a.06.06,0,0,1,0,.06,0,0,0,0,0,0,0h0s0,0,0-.05h0s0,0,0,0,0,0,0,0,0,0,0,0a0,0,0,0,1,0-.06s0,0,0,0,0,0,0,0,0,0,0,0l0,0s0,0,0,0h0s0,0,0,0,0,0,0,0a.09.09,0,0,0,0,0s0,0,0-.05,0,0,0,0Z"/><path class="cls-18" d="M60.94,27.16a.05.05,0,0,1,0,0,.12.12,0,0,0,0,.11v0s0,0,0,0,0,0,0,0,0,0,0,0,0,0,.06,0,0,0,0,0h.07a.32.32,0,0,1,0,.09s0,0,0,0a0,0,0,0,0,0,0s0,0,0,.05a.06.06,0,0,1,0,0,.14.14,0,0,0,0,.06h0s0,0,0,0l0,0a.13.13,0,0,1-.05-.09s0-.06,0-.08a0,0,0,0,1,0-.06s0-.06,0-.09A.3.3,0,0,1,60.94,27.16Z"/><path class="cls-19" d="M60.6,27.89h0c0-.05-.05-.07-.09-.09h0a0,0,0,0,0,0,0,.06.06,0,0,1,0-.06c0-.05,0-.08.06-.11s0,0,0,0,0,0,.07,0h.05l.06,0s0,0,0,0a.05.05,0,0,1,0,0h0s0,0,0,0,0,0,0,0a.22.22,0,0,0,0,.14s0,0,0,0,0,0,0,.05S60.62,27.89,60.6,27.89Zm0-.26h0a0,0,0,0,0,0,0Zm-.08,0h0Z"/><path class="cls-23" d="M63,27.19l-.05,0s0,0,0,0,0,0,0,.05a.09.09,0,0,1,0,0l0,0h0s0,0,0,0l0,0s0,0,0,0,0,0,0,0,0,0,0,0a0,0,0,0,0,0,.06s0,0,0,0,0,0,0,0,0,0,0,0h0s0,0,0,.05h0a0,0,0,0,1,0,0,.06.06,0,0,0,0-.06v-.08s0,0,0,0,0,0,0,0,0,0,0,0v0s0,.07,0,.11a.06.06,0,0,0,0,0s0,0,0-.07,0,0,0,0h0v0s0,0,0,0,0,0,.07,0,0,0,0,0L63,27.1s0,0,.06,0h.06s0,0-.06,0a.05.05,0,0,0,0,0h0a0,0,0,0,0,0,0S63,27.16,63,27.19Z"/><path class="cls-20" d="M61.86,26.9v0s0,0,0,0,0,0,0,0a0,0,0,0,0,0,0,0,0,0,0,0,0,0h0s0,0,0,0h0a0,0,0,0,0,0,0h0s0,0,0,.05,0,0,0,.05a.08.08,0,0,1,0,.07h0s0,0,0,0h0s0,0,0,0,0,0,0,0,0,0,0,0A.15.15,0,0,1,61.86,26.9Z"/><path class="cls-23" d="M61.81,27.87a.09.09,0,0,0,0-.1.27.27,0,0,1,0-.09l0-.09s.05-.07.07-.1,0,0,0-.06,0,0,0,0a.13.13,0,0,0,0,.09l0,.06s0,.07,0,.11,0,0,0,0h0s0,0,0,0,0,0,0,.06h0s0,0,0,0h0s0,0,0,0h0l.06,0,.07,0a0,0,0,0,0,0,0s0,0,.06,0h0s0,0-.05.05,0,0,0,0h0a0,0,0,0,1-.06,0s0,0-.06,0Zm0-.08h0a0,0,0,0,0,0,0S61.85,27.8,61.85,27.79Z"/><path class="cls-20" d="M62.63,27.1s-.05,0-.07.06,0,0-.05.06a.08.08,0,0,0,0,.06.05.05,0,0,0,0,0s0,0,0,0h-.06a.09.09,0,0,1,0-.1.15.15,0,0,0,0-.07h0s0,0,.07-.06l0,0h0s0,0,.06,0S62.64,27.08,62.63,27.1Z"/><path class="cls-20" d="M63.06,26.81h0s0,0,0,0v0h0a0,0,0,0,1,.06,0s0,.06,0,.07h0s0,0,0,0,0,0,0,0a0,0,0,0,0,0,0s0,0,0,0,0,0,0,0l0,0s0,0,0,0,0,0,0,0S63.05,26.8,63.06,26.81Z"/><path class="cls-23" d="M60.57,27.07h0s0,0,0,0,0,0,0,0,0,0,0,0,0,.06,0,.09a0,0,0,0,1,0,0s0,0,0,0,0,.05,0,.07a0,0,0,0,0,0,0,0,0,0,0,1,0,0s0,0,0,0,0,0,.09,0h0v0s0,0,0,0,0,0,0,0h0s0,0,0,0,0,0,0,0h0s0,0,0,0,0,0,0,0,0,0,0,0,0,0,0,0v0s0,0,0,0a0,0,0,0,0,0,0,.27.27,0,0,1,.09,0s0,0,0,0,0,0,0,0h0S60.58,27.1,60.57,27.07Z"/><path class="cls-23" d="M61.44,26.68s0,0,0,0l0,0s0,0,0-.06,0,0,0,0,0,0,0,0h0s0,0,0,0v0h0l-.06,0s0,0,0,0,0,0,0,0h.14l0,0a0,0,0,0,0,0,0h0s0,0,0,0v0h0s.06,0,.07.07,0,0,0,0h0A.08.08,0,0,0,61.44,26.68Zm-.06-.05h0a0,0,0,0,0,0,0Z"/><path class="cls-23" d="M61.43,27a.17.17,0,0,1,0-.07.07.07,0,0,0,0-.06,0,0,0,0,1,0,0,0,0,0,0,0,0,0s0,0,0,0h0s0,0,0-.05,0,0-.05,0h0s0,0,.05,0,0,0,0,.05a.11.11,0,0,1-.09.07s0,0,0,.06,0,0,0,0a.11.11,0,0,1,0,.08S61.45,27,61.43,27Z"/><path class="cls-20" d="M62,26.84v0s0-.05.05,0h0s0,0,0,0,0,0,0,0h0s0,0,0,0h0S62,26.84,62,26.84Z"/><path class="cls-23" d="M62.34,27.49h0s0,0,0,0h0s0,0,0,0h0s0,0,0,0,0,0,0,0,0,0,0,0,0,0,0,0v0s0,0,0,0h0s0,0,0,0h0c.05,0,.06,0,.06-.06s0,0,0,0,0,0,0,0,0,0,0,0v0s0,0,0,0l0,0A0,0,0,0,0,62.34,27.49Z"/><path class="cls-23" d="M62.46,27.34h0s0,0,0,0a.05.05,0,0,1,0,0,.08.08,0,0,1,0-.06s0,0,.05-.06,0,0,0,.05a.14.14,0,0,0,0,.11s0,0,0,0S62.46,27.36,62.46,27.34Z"/><path class="cls-23" d="M61.12,27.7a.14.14,0,0,1,0-.06.06.06,0,0,0,0,0s0,0,0-.05a0,0,0,0,1,0,0s0,0,0,0h0a0,0,0,0,1,0,0s0,0,0,0l0,.11Z"/><path class="cls-23" d="M60.56,27.51a.09.09,0,0,0,0-.11s0,0,0,0h0s0,0,0,0,0,.08,0,.1S60.56,27.53,60.56,27.51Z"/><path class="cls-23" d="M62.68,27.28s0,0,0,.06,0,0,0,.06,0,0,0,0h0s0,0,0,0,0,0,.06,0a.43.43,0,0,1,0,0S62.64,27.3,62.68,27.28Z"/><path class="cls-23" d="M62,27.05A.08.08,0,0,0,62,27s0,0,0-.05,0,0,0-.05h0A.11.11,0,0,1,62,27,.13.13,0,0,0,62,27,0,0,0,0,1,62,27.05Z"/><path class="cls-23" d="M63.27,27.06h-.1s0,0-.06,0a0,0,0,0,1,0-.05s0,0,0,0h.1Z"/><path class="cls-23" d="M62.49,27.16a.15.15,0,0,1,0,.07.09.09,0,0,0,0,.1,0,0,0,0,1,0-.06.54.54,0,0,1,0-.11Z"/><path class="cls-24" d="M61.24,27.52h0a.32.32,0,0,0,0-.09h.05a0,0,0,0,1,0,0s0,0,0,.06Z"/><path class="cls-24" d="M61.35,27.34s0,0,0-.06,0,0,0,0a.08.08,0,0,0,0,0s0,0,0,0h0Z"/><path class="cls-24" d="M62.63,27.1s0,0,0,0,0,0-.06,0l0,0h0a0,0,0,0,1,0,0S62.65,27.1,62.63,27.1Z"/><path class="cls-23" d="M60.72,27s.07,0,.07.05,0,0,0,.05,0,0,0,0,0,0,0,0Z"/><path class="cls-18" d="M62.34,27.49a0,0,0,0,1,0-.06h0s0,0,0,0h0s0,0-.06,0,0,0,0,0Z"/><path class="cls-24" d="M60.93,26.61c0,.05,0,.06-.06.07h0a0,0,0,0,1,0,0,0,0,0,0,0,0,0S60.92,26.61,60.93,26.61Z"/><path class="cls-23" d="M62.6,27.07l0,0s0,0-.07.06,0,0,0,0A.13.13,0,0,1,62.6,27.07Z"/><path class="cls-23" d="M62.11,26.84s0,0,0,0,0,0,0,0h0s0,0,0,0a0,0,0,0,1,0,0A0,0,0,0,1,62.11,26.84Z"/><path class="cls-24" d="M61.31,27.43a0,0,0,0,1,0,0s0,0,0,0,0,0,0,0Z"/><path class="cls-23" d="M62,26.88s0,0,0,0h0v0s0,0,0,0S62,26.9,62,26.88Z"/><path class="cls-23" d="M62,26.79h0c-.05,0-.05,0-.05,0a0,0,0,0,1,0,0s0,0,0,0S62,26.77,62,26.79Z"/><path class="cls-23" d="M61.37,27.4s0,0,0,0a0,0,0,0,1,0,0h0s0,0,0,0S61.4,27.38,61.37,27.4Z"/><path class="cls-23" d="M63.23,27.22a.07.07,0,0,1-.06,0l0-.05S63.21,27.22,63.23,27.22Z"/><path class="cls-23" d="M61.94,26.81a0,0,0,0,1,0,0,0,0,0,0,1,0,0s0,0,0,0l0,0S61.94,26.8,61.94,26.81Z"/><path class="cls-23" d="M61.92,27s0,0,0,0,0,0,0,0S61.91,27,61.92,27Z"/><path class="cls-24" d="M60.77,27.05s0,0,0-.05a0,0,0,0,1,0,0s0,0,0,0Z"/><path class="cls-24" d="M60.83,27.52s0,0,0-.05,0,.05,0,.06S60.83,27.53,60.83,27.52Z"/><path class="cls-23" d="M61.86,26.9a.15.15,0,0,0,0,.07S61.84,26.93,61.86,26.9Z"/><path class="cls-24" d="M60.79,27.41s0-.05,0-.07S60.79,27.38,60.79,27.41Z"/><path class="cls-23" d="M62,26.84s0,0,0,0h0S62,26.85,62,26.84Z"/><path class="cls-24" d="M60.79,27.53s0,0,0,0,0,0,0,0h0S60.79,27.49,60.79,27.53Z"/><path class="cls-23" d="M61,26.61h-.05s0,0,0,0S61,26.6,61,26.61Z"/><path class="cls-23" d="M62.49,27.4l0,0h0s0,0,0,0Z"/><path class="cls-23" d="M61.22,26.45a.09.09,0,0,1,0,0S61.2,26.44,61.22,26.45Z"/><path class="cls-23" d="M61.4,27.22a.06.06,0,0,1,0-.06A.09.09,0,0,1,61.4,27.22Z"/><path class="cls-23" d="M61.92,27s0,0,0,0,0,0,0,0h0Z"/><path class="cls-23" d="M61.43,27a0,0,0,0,1,0-.05Z"/><path class="cls-19" d="M60.73,27.29h0s0,0,0,0,0,0,0,0S60.74,27.29,60.73,27.29Z"/><path class="cls-24" d="M60.82,27.44s0,0,0,0Z"/><path class="cls-19" d="M60.63,27.26s0,0,0,0S60.62,27.25,60.63,27.26Z"/><path class="cls-23" d="M62,26.87a0,0,0,0,1,0,0Z"/><path class="cls-15" d="M63,26.8h0s0,0,0,0Z"/><path class="cls-23" d="M60.52,27.52s0,0,0,0Z"/><path class="cls-23" d="M62,26.84s0,0,0,0S62,26.83,62,26.84Z"/><path class="cls-23" d="M60.67,27.4s0,0,0,0S60.67,27.42,60.67,27.4Z"/><path class="cls-18" d="M62.43,27.43h0Z"/><path class="cls-24" d="M60.8,27.56s0,0,0,0S60.8,27.55,60.8,27.56Z"/><path class="cls-23" d="M60.69,27.42h0Z"/><path class="cls-23" d="M62,26.88h0Z"/><path class="cls-21" d="M61.58,28.66l-.07-.07s0,0,0-.08a.21.21,0,0,1,0-.11l0,0s.05-.05.05-.09a0,0,0,0,1,0,0h.08a.18.18,0,0,1,.12,0s0,0,0,0,0,0,0,0l.09,0h0s0,0,0,0l.11,0s0,0,0,0h0s0,0,0,0,0,0,0,0l0,0h0a0,0,0,0,0,0,0l0,.06s0,0,0,0,0,0,.05,0h0s0,0,0,0l.06,0s0,0,0,0,0,0,0,.08,0,.05-.07.07l0,0s-.05,0,0,.08,0,0,0,.06a.06.06,0,0,1,0,.07.09.09,0,0,0-.06.1s0,0,0,.07,0,.05-.05.06a.09.09,0,0,1-.07,0h0s0,0,0,0a.12.12,0,0,0,0-.09s0,0,0,0a.12.12,0,0,0,0-.1s0,0,0-.06,0-.06,0-.09,0,0,0,0a.25.25,0,0,1,0-.08h0s0,0,0-.06h0l-.13,0h0a.08.08,0,0,1-.1,0Z"/><path class="cls-21" d="M60.66,28.62h0s0,0,.06,0,0,0,.06,0a.29.29,0,0,1,.13.05h0s0,0,0,0a.06.06,0,0,1,.05.06s0,0,0,0,0,0,0,0a.41.41,0,0,1,.16,0,0,0,0,0,1,0,.07.28.28,0,0,0,0,.13s0,.08-.09.09-.05,0,0,0a.15.15,0,0,1,0,.07s0,0,0,0l0,0h0l0,0h0s0,0,0,0h0s0,0,0,0a.06.06,0,0,1,0,0,.11.11,0,0,0,0,0s0,.05,0,.06,0,0,0,0,0,0,0,0,0,0,0,0,0,0,0,0a.1.1,0,0,1,0-.08s0,0,0,0a.2.2,0,0,1,0-.07.14.14,0,0,0,0-.09s0-.05,0-.08a.65.65,0,0,0,0-.2v0s0-.07,0-.08-.05,0-.07-.07l0-.09s0-.06,0-.08,0,0,0,0S60.65,28.65,60.66,28.62Z"/><path class="cls-19" d="M62.82,28.62v0a.09.09,0,0,0,0,.09.31.31,0,0,1,0,.1.06.06,0,0,0,0,.06l0,0s0,0,0,0l0,0a0,0,0,0,1,0-.05c-.06,0-.07,0-.07-.07s0,0,0,0,0,0,0,0a.2.2,0,0,1,0-.07s0,0,0,0a.07.07,0,0,1-.06,0s0,0,0,0,0,0,0,0a0,0,0,0,1,0,0s0,0,0,0,0,0,0,0,0,0,0,0h0a.23.23,0,0,0,.1-.07s0,0,0-.05,0,0,0,0a0,0,0,0,0,.05,0,.07.07,0,0,1,.08.05s0,0,0,0,0,0,0,0,0,.06,0,.09l0,0a0,0,0,0,0,0,0s0,0,0,0h0Z"/><path class="cls-19" d="M63.2,28.86s0,0,0,0,0,0,0,0a.12.12,0,0,0-.07.05s-.05,0-.06.06,0,0,0,0a0,0,0,0,1,0,0,.05.05,0,0,1,0-.06s0,0,0,0,0,0,0,0,0,0,0,0,0-.05,0-.06h0a.25.25,0,0,1,0-.12s0-.05,0-.05,0,0,0-.05l0,0s0,0,0,0v0a.08.08,0,0,1,.08,0l0,.07h0s0,0,0,0a.14.14,0,0,0,0,.11s0,0,0,0l0,0h0s0,0,0,0,0,0,.06.07l0,0h0Z"/><path class="cls-22" d="M62.44,28.53h0s0,0,0,0,0,0,0,0v0s0,0,0,0v0h0s0-.05,0-.08,0,0,0,0l-.06,0s0,0,0,0h0s0,0-.05,0,0,0,0,0l0-.06a0,0,0,0,0,0,0h0s0,0,0,0,0,0,0,0a1.25,1.25,0,0,1,.08.12s0,0,.06,0,0,0,0,0,0,0,0,0h0Z"/><path class="cls-24" d="M62.38,29.05h0s0,0,0,0,0,0,0-.05a.06.06,0,0,0,0-.06s0,0,0,0,0,0,0,0,0,0,0,0,0,0,0,0,0,0,0,.05A.05.05,0,0,0,62.38,29.05Z"/><path class="cls-24" d="M61.58,28.66h0a.08.08,0,0,0,.1,0h0l.13,0h0s0,.05,0,.06v0s0,0,0,0h0a.07.07,0,0,0-.09,0l-.06,0S61.61,28.71,61.58,28.66Z"/><path class="cls-24" d="M61.85,28.75a.25.25,0,0,0,0,.08s0,0,0,0,0,.06,0,.09,0,0,0,.06,0,0,0-.07a.14.14,0,0,0,0-.15S61.84,28.76,61.85,28.75Z"/><path class="cls-24" d="M63.2,28.86l0-.05s0,0,0,0a0,0,0,0,0,0,0l0,0h0a.21.21,0,0,1,0,.06.06.06,0,0,0,.06.05h0s0,0,0,0H63.2Z"/><path class="cls-19" d="M61,28.77s0,0,0,0,0,0,0,0a.06.06,0,0,0-.05-.06s0,0,0,0h0s0,0,.07.06h.07s0,0,0,0h-.07S61,28.76,61,28.77Z"/><path class="cls-23" d="M60.92,28.64a.29.29,0,0,0-.13-.05s0,0-.06,0,0,0-.06,0,0,0,0,0l.06,0h.11l0,0Z"/><path class="cls-22" d="M63.25,28.86h0s0,0,0,0h.06s0,0,0,0h0s0,0-.08,0Z"/><path class="cls-22" d="M62.28,29a.06.06,0,0,0,0-.07s0,0,0-.06,0-.06,0-.08h0s0,0,0,.06,0,.06,0,.09S62.31,29,62.28,29Z"/><path class="cls-22" d="M60.79,29.53s0,0,0-.06a.11.11,0,0,1,0,0,.06.06,0,0,0,0,0s0,0,0,0,0,.06,0,.09,0,0,0,0a0,0,0,0,1,0,.05Z"/><path class="cls-22" d="M63.36,29h0c-.06,0-.07,0-.06.09a.64.64,0,0,1,0,.07v0s0-.06,0-.09v-.07a.06.06,0,0,1,.06,0Z"/><path class="cls-24" d="M61,29.21s0,0,0,0a.15.15,0,0,0,0-.07s0,0,0,0,0,0,0,.05a0,0,0,0,1,0,0s0,0,0,.05Z"/><path class="cls-22" d="M62.31,28.77l0,0s0-.05.07-.07h0l0,0s0,0,0,0h0Z"/><path class="cls-24" d="M62.82,28.62h0s0-.05,0-.08,0,0,0,0h0s0,0,0,.07h0s0,0,0,0Z"/><path class="cls-24" d="M62.17,29.15s0-.07,0-.07h0Z"/><path class="cls-19" d="M62.33,28.77s0,0,0,0,0,0,0,0S62.35,28.77,62.33,28.77Z"/><path class="cls-24" d="M63.42,28.89l0,0s0,0,0,0h0Z"/><path class="cls-19" d="M62.83,28.61s0-.05,0-.07S62.86,28.59,62.83,28.61Z"/><path class="cls-19" d="M63.46,29l0,0h0S63.44,29,63.46,29Z"/><path class="cls-22" d="M60.85,29.34s0,0,0,0S60.87,29.34,60.85,29.34Z"/><path class="cls-22" d="M60.89,29.31l0,0A.06.06,0,0,1,60.89,29.31Z"/><path class="cls-19" d="M63.28,29.06v.07A.09.09,0,0,1,63.28,29.06Z"/><path class="cls-19" d="M61.79,28.7h-.06S61.77,28.7,61.79,28.7Z"/><path class="cls-22" d="M63.41,29h0a.1.1,0,0,1-.07,0s0,0,0,0l0,0Z"/><path class="cls-22" d="M61,29.21h0s0,0,0,0Z"/><path class="cls-22" d="M62.86,28.52h0a0,0,0,0,0,0,0h0s0,0,0,0h0Z"/><path class="cls-23" d="M62.38,29.05a.05.05,0,0,1,0,0S62.4,29,62.38,29.05Z"/><path class="cls-19" d="M62.47,28.68a0,0,0,0,1,0,0,0,0,0,0,1,0,0s0,0,0,0Z"/><path class="cls-19" d="M61.81,28.68s0,0,0,0S61.82,28.7,61.81,28.68Z"/><path class="cls-19" d="M63.42,28.89h0a0,0,0,0,1,0,0h0Z"/><path class="cls-19" d="M63.41,29l0,0S63.39,29,63.41,29Z"/><path class="cls-19" d="M62.4,28.69h0S62.43,28.69,62.4,28.69Z"/><path class="cls-19" d="M60.94,28.63s0,0,0,0Z"/><path class="cls-19" d="M60.92,28.64h0s0,0,0,0Z"/><path class="cls-19" d="M62.37,28.8h0a0,0,0,0,1,0,0A0,0,0,0,1,62.35,28.8Z"/><path class="cls-19" d="M63.43,28.76v0h0s0,0,0,0Z"/><path class="cls-19" d="M62.43,28.66s0,0,0,0S62.44,28.66,62.43,28.66Z"/><path class="cls-19" d="M61.2,28.73h0s0,0,0,0Z"/><path class="cls-19" d="M63.2,28.86h0S63.21,28.88,63.2,28.86Z"/><path class="cls-19" d="M62.31,28.77h0s0,0,0,0Z"/><path class="cls-19" d="M63.36,28.88h0S63.37,28.9,63.36,28.88Z"/><path class="cls-19" d="M60.89,28.61h0S60.89,28.59,60.89,28.61Z"/><path class="cls-19" d="M60.85,28.6h0S60.84,28.58,60.85,28.6Z"/><polygon class="cls-19" points="62.49 28.7 62.49 28.71 62.48 28.7 62.49 28.7 62.49 28.7"/><path class="cls-19" d="M62.82,28.62s0,0,0,0Z"/><path class="cls-19" d="M60.81,28.58h0Z"/><polygon class="cls-19" points="62.86 28.52 62.87 28.52 62.86 28.53 62.86 28.52"/><path class="cls-17" d="M60.75,29.76s-.06,0-.06-.05,0,0,0,0h0s0,0,0,0a0,0,0,0,1,.07,0s0,0,.05,0a.14.14,0,0,0,.08-.07h0s0,0,0,0-.06.08-.11.1Z"/><polygon class="cls-17" points="60.79 29.66 60.79 29.66 60.79 29.66 60.79 29.66 60.79 29.66"/><path class="cls-21" d="M60.76,28.09s0,0,0,0l0,0a.05.05,0,0,0,0,.05.13.13,0,0,1,0,.06s-.06,0,0,.08v0h0c0-.05,0-.06-.09,0h-.07s0,0,0,0,0,.08,0,.13,0,0,.05,0l0,0h0s0,0,0,0,0,.05,0,.05,0,0,0,0a.09.09,0,0,0,0,.05v0h0l0,0s0,0,0,0l-.07,0h-.07s0,0,0,0h0s-.05,0-.08,0a0,0,0,0,1,0,0s0,0,0,0,0,0,0,0a0,0,0,0,1,0,0s0,0,0,0,0,0,0,0,0,0,0,0,0,0,0-.05,0,0,0,0,0,0,0,0h0s0,0,0,0h0s0,0,0,0a.39.39,0,0,0-.08-.1s0,0,0-.05h0s0,0,0,0h0s0,0,0,0,0,0,0,0a.12.12,0,0,1,.08,0l0,0h0s.06,0,.09-.07a2,2,0,0,0,.23-.18l.13-.09s0,0,0,0,0,0,0,0,0,0,0,.06,0,0,0,0a.07.07,0,0,0,0,.06s0,0,0,0,0,0,0,0a0,0,0,0,0,0,0s0,0,0,0,0,0,0,0,0,0,0,0h0l0,0s0,0,0,0,0,0,0,0,0,0,0,0h0S60.75,28.08,60.76,28.09Z"/><path class="cls-24" d="M60.16,28.33s0,0,0,0,0,0,0,0,0,0,0,.05,0,0,0,0,0,0,0,0,0,0,0,0a0,0,0,0,0,0,0s0,0,0,0,0,0,0,0a0,0,0,0,0,0,0s.05,0,.08,0h0s0,0,0,0,0,0-.08,0,0,0,0,0a.15.15,0,0,0-.06-.09A.08.08,0,0,0,60.16,28.33Z"/><path class="cls-24" d="M60.56,28.62v0l.09,0s0,.07,0,.1,0,0,0,0,0,0,0,.08,0,0,0-.07a.07.07,0,0,0,0-.08s0,0,0,0Z"/><path class="cls-22" d="M60.16,28.33a.08.08,0,0,1,.05.05h0s0,0,0,0,0,0,0-.06h0s0,0,0,0,0,0,0,0a0,0,0,0,0,0,0Z"/><path class="cls-24" d="M60.14,28.35h0a0,0,0,0,1,0,0S60.14,28.33,60.14,28.35Z"/><path class="cls-24" d="M60.54,28.6l0,0A0,0,0,0,1,60.54,28.6Z"/><path class="cls-23" d="M60.42,27.2s0,0,0,0l0,0s0,0,0,.05,0,.08.06.1,0,0,0,0,0,.05,0,.07h0s0,0,0,0v0s0,0,0,0,0,0,0,0,0-.06,0-.09,0,0,0-.05S60.44,27.21,60.42,27.2Z"/><path class="cls-16" d="M60.79,28.06s0,0,0,0,0,0,0,0,0,0,0,0l0,0h0a.08.08,0,0,0,.08,0s0,0,0,.05,0,0-.06,0,0,0,0,0,0,0,0,0,0,0,0,0Z"/><path class="cls-16" d="M60.6,27.89s0,0,0,0,0,0,0-.05,0,0,0,0a.22.22,0,0,1,0-.14s0,0,0,0,0,0,0,0,0,0,0,0a.25.25,0,0,0,0,.12s0,0,0,0a0,0,0,0,0,0,.06s0,0,0,0S60.61,27.9,60.6,27.89Z"/><path class="cls-21" d="M60.8,28h-.06a0,0,0,0,1,0,0h0Z"/><path class="cls-24" d="M60.39,27.45a0,0,0,0,1,0,0,0,0,0,0,0,0-.06l0,0s0,0,0,.06Z"/><path class="cls-24" d="M60.53,27.23h0s0,0,0,.05,0,0,0,0,0,0,0,0S60.53,27.24,60.53,27.23Z"/><path class="cls-23" d="M60.21,27.45l0,0a0,0,0,0,1,0,0S60.21,27.47,60.21,27.45Z"/><path class="cls-23" d="M60.39,27.28s0,0,0-.06A.13.13,0,0,1,60.39,27.28Z"/><path class="cls-21" d="M60.84,27.94h0S60.83,27.93,60.84,27.94Z"/><path class="cls-23" d="M60.4,27.22s0,0,0,0A0,0,0,0,1,60.4,27.22Z"/><path class="cls-21" d="M60.82,28h0S60.81,28,60.82,28Z"/><path class="cls-24" d="M60.57,27.21h0Z"/><path class="cls-21" d="M62.87,28.5h0s0,0,0,0,0,.05,0,.08h0s0,0,0,0a.36.36,0,0,1,0-.11s0,0,0,0h0s0-.06-.06-.05-.11,0-.16,0,0,0,0,0,0,0,0,0,0,0,0,0,0,.08.08.07a.07.07,0,0,1,.06,0s0,0,0,.05a.23.23,0,0,1-.1.07l-.06,0h0s-.05,0-.06,0a1.25,1.25,0,0,0-.08-.12s0,0,0,0,0,0,0,0h0l0,0s0,0,0-.05h0a.06.06,0,0,0,0,0h0a.08.08,0,0,1-.08,0s0,0,0,0,0,0,0,0h.15s0,0,0,0,0,0,0,0l0,0,.19-.08h0l.17.13.09.08.09.06.09,0v0s0,0,0,0,0,0,0,0,0,0,0,.06,0,0,0,0h0l0,0s0,0,0,0a.08.08,0,0,1,0-.05.07.07,0,0,0,0-.05h0v.05s0,0,0,0a0,0,0,0,0,0,0s0-.07,0-.11v0s0,0,0,0A.17.17,0,0,0,63.2,28s0,0,0-.06h0a.11.11,0,0,1,0,.05l.05.09s0,.05,0,.08h0a.32.32,0,0,1,0,.14s0,.07-.06.07a.42.42,0,0,1-.12,0s0,0,0,0l0,0s0,0,0,.07,0,0,0,0,0,0,0,0a0,0,0,0,0,0,0s0,0,0,0,0,0,0,0v-.05s0,0,0,0,0,0,0,0,0,0,0,0,0,0-.06,0a.08.08,0,0,0-.08,0v0h0A0,0,0,0,0,62.87,28.5Z"/><path class="cls-24" d="M63,28.44s0,0,.06,0,0,0,0,0,0,0,0,0,0,0,0,0v.05s0,0,0,0,0,0,0,0,0,0,0,0a0,0,0,0,0,0,.05.07.07,0,0,1,0,.06s0,0,0,0h0s0,0,0,0,0-.05-.06-.07,0,0,0,0h0l0,0s0,0,0,0a.14.14,0,0,1,0-.11s0,0,0,0h0Zm.13.28h0Z"/><path class="cls-21" d="M63.35,28.75a0,0,0,0,1,0,0s0,0,0,0h0s0,0-.06-.05l0,0s0,0,.07,0h0s0,0,0,0Z"/><path class="cls-24" d="M63.22,28.58s0,0,0-.07l0,0s0,0,0,0a.42.42,0,0,0,.12,0s.05,0,.06-.07a.32.32,0,0,0,0-.14s0,0,0,0v0a0,0,0,0,0,0,0v0a.14.14,0,0,1-.06.14l-.1,0h0s0,0,0,.07S63.24,28.56,63.22,28.58Z"/><path class="cls-24" d="M63.58,28.24h0s0,0,0,0,0,0,0,0,.08,0,.09-.07,0,0,0,0,0,0,0,0,0,0,0,0A.07.07,0,0,1,63.58,28.24Z"/><path class="cls-23" d="M63.41,28.19s0,0,0,0h0a0,0,0,0,1,0,0h0s0,0,0,0h0a.05.05,0,0,1,0,.05s0,0,0,0h0s0,0,0,0h0v0s0-.06-.06-.06h0S63.41,28.18,63.41,28.19Z"/><path class="cls-23" d="M63.44,28.62s-.06,0,0-.08,0,0,0,0,0,0,0,0h0s0,0,0-.06a0,0,0,0,1,0,0,.18.18,0,0,0,0,.12Z"/><path class="cls-23" d="M63.43,28.76s0,0,0,0,0,0,0,0,0,0,0,0,0,0,0-.06l0,0c0-.05,0-.07.07-.05v0S63.43,28.75,63.43,28.76Z"/><path class="cls-22" d="M63.41,28.19s0,0,0,0h0c.05,0,.05,0,.06.06v0s0,0,0,0,0,0,0,0,0,0,0,0a0,0,0,0,1,0,0,0,0,0,0,0,0,0,0,0,0,0,1,0,0Z"/><path class="cls-24" d="M63.42,28.49s0,0,0,.06h0s0,0,0,0,0,0,0,0,0,0,0,0S63.4,28.47,63.42,28.49Z"/><path class="cls-24" d="M63.44,28.62h0s0,0,0,0h0S63.44,28.63,63.44,28.62Z"/><path class="cls-24" d="M63.51,28.78a0,0,0,0,1,0,0,.05.05,0,0,1,0,0h0S63.51,28.77,63.51,28.78Z"/><path class="cls-24" d="M63.37,28.77l0,0s0,0,0,.06,0,0,0,0S63.37,28.78,63.37,28.77Z"/><path class="cls-24" d="M63.35,28.75v-.06s0,0,0,0,0,0,0,0A.12.12,0,0,1,63.35,28.75Z"/><path class="cls-22" d="M63.51,28.78s0,0,0,0,0,0,0,0l0,0Z"/><path class="cls-24" d="M63.32,28.68s0,.05-.07,0Z"/><path class="cls-24" d="M63.53,28.25s0,0,0,0h0s0,0,0,0Z"/><path class="cls-23" d="M63.44,28.65h0S63.45,28.67,63.44,28.65Z"/><path class="cls-22" d="M63.57,28.75h0s0,0,0,0S63.57,28.74,63.57,28.75Z"/><path class="cls-22" d="M63.5,28.73h0v0A0,0,0,0,1,63.5,28.73Z"/><path class="cls-22" d="M63.48,28.25s0,0,0,0S63.49,28.26,63.48,28.25Z"/><path class="cls-24" d="M63.33,28.67h0Z"/><path class="cls-18" d="M63,27.13s0,0,0,0h0v0Z"/><path class="cls-20" d="M60.14,27.28s0,0,0,0,0,0,.07,0h0v0h0s0,0,0,0l0,0s0,0,0,.06,0,0,0,0,0,.05,0,.06h0s0,0-.05,0h0s0,0-.06,0a0,0,0,0,1,0,0h0s0,0,0-.05Z"/><path class="cls-20" d="M60.53,27.1h0s0,0,0,0,0,0,0,0a.27.27,0,0,0-.09,0,0,0,0,0,1,0,0s0,0,0,0h0s0,0,0,0,0,0,0,0,0,0,0,0,0,0,0,0Z"/><path class="cls-20" d="M60.43,26.88l0,0h0s0,.06,0,.07l0,.05s0,0,0,0Z"/><path class="cls-18" d="M60.45,27.05s0,0,0,0h0a0,0,0,0,1,0,0h0Z"/><path class="cls-18" d="M60.22,27.4s0,0,.05,0h0a0,0,0,0,1,0,0h0Z"/><path class="cls-24" d="M60.3,27.4s0,0,0-.06h0s0,0,0,.05S60.32,27.41,60.3,27.4Z"/><path class="cls-18" d="M60.51,27s0,0,0,0,0,0,0,0,0,0,0,0Z"/><path class="cls-23" d="M60.4,27.06h0s0,0,0,0S60.4,27.09,60.4,27.06Z"/><path class="cls-23" d="M60.25,27.14l0,0S60.27,27.14,60.25,27.14Z"/><path class="cls-23" d="M60.32,27.34h0s0,0,0,0S60.32,27.32,60.32,27.34Z"/><path class="cls-23" d="M60.25,27.25v0h0Z"/><path class="cls-23" d="M60.52,27.1s0,0,0,0S60.51,27.08,60.52,27.1Z"/><polygon class="cls-23" points="60.41 27.13 60.41 27.14 60.41 27.13 60.41 27.13 60.41 27.13"/><polygon class="cls-23" points="60.39 27.13 60.38 27.13 60.38 27.13 60.38 27.13 60.39 27.13"/><polygon class="cls-18" points="60.29 27.4 60.3 27.39 60.3 27.4 60.29 27.4"/><path class="cls-23" d="M60.22,27.4h0a0,0,0,0,1,0,0Z"/><path class="cls-23" d="M60.23,27.26h0S60.23,27.25,60.23,27.26Z"/><path class="cls-23" d="M60.24,27.15h0S60.25,27.16,60.24,27.15Z"/><path class="cls-23" d="M63.64,28h0s0-.07,0-.1,0-.05,0,0,0,0,0,0h.07s0,0,0,0,0,0,0,0a.11.11,0,0,1,0,.05,0,0,0,0,1,0,0h0s0,0,0,0a.1.1,0,0,0,0,.09h0v-.06S63.67,28,63.64,28Z"/><path class="cls-24" d="M63.7,28.1h0s0,0,0,0,0-.06,0-.06a.05.05,0,0,1,0,0s0,0,0,0S63.71,28.1,63.7,28.1Z"/><path class="cls-23" d="M63.5,28.16s0,0,0,0l.06-.05s0,0,0,0S63.5,28.15,63.5,28.16Z"/><path class="cls-23" d="M63.59,28.08l0,0S63.63,28.08,63.59,28.08Z"/><path class="cls-24" d="M63.68,28h0a0,0,0,0,1,0,0h0S63.68,28,63.68,28Z"/><path class="cls-23" d="M63.73,27.93s0,0,0,.05h0a.07.07,0,0,0,0-.05Z"/><path class="cls-23" d="M63.55,28.09s0,0,0,0S63.56,28.09,63.55,28.09Z"/><path class="cls-23" d="M63.64,27.8s0-.05,0-.07,0,0,0,0Z"/><path class="cls-23" d="M63.6,27.84s0,0,0,0l0,0v0s0,0,0,0Z"/><path class="cls-22" d="M63.6,27.84s0,0,0,0v0Z"/><path class="cls-24" d="M63.72,27.93a.07.07,0,0,1,0,.05.1.1,0,0,1,0-.09s0,0,0,0h0a0,0,0,0,0,0,0Z"/><path class="cls-22" d="M62.26,28.07l0,0s0,0,0,0,0,0,0,0h-.15s0,0,0,0,0,0,0,0a.08.08,0,0,0,.08,0h0a.06.06,0,0,1,0,0h0v0a0,0,0,0,1-.05,0l-.11,0s.07,0,.1,0h0s0,0,0,0h0s0,0,0,0h0s0,0,0,0a0,0,0,0,0,0,0h0s0,0,0,0,0,0,0,0v0s0,0,0,0,0,0,0,0a0,0,0,0,1,.06,0l.06,0S62.22,28.06,62.26,28.07Zm-.08.18,0,0h0s0,0,0,0Z"/><path class="cls-16" d="M62.06,27.76s-.06,0-.06,0a0,0,0,0,1,0,0l-.07,0-.06,0v0h0s0,0,0,0h0a.07.07,0,0,0,0-.06h0s0,0,0-.06h0l0,0,0-.06a0,0,0,0,1,0,0l0,0s0,0,0,0l0,.07a0,0,0,0,0,0,0s0,0,0,0h.06s0,0,0,0h0s0,0,0,0,0,0,0,0Z"/><path class="cls-22" d="M61.69,27.76s0,0,0,.06,0,0,0,0,0,0,0,0,0,0,0,0h0s0,0,0,0,0,0,0,0,0,0,0,0a.07.07,0,0,0-.05,0h-.07s0,0,0,0,0,0,0,0,0,0,0,0v0h0a0,0,0,0,0,0,0,0,0,0,0,1,0,0h0s0,0,0,.07h0a0,0,0,0,0,0,0,.14.14,0,0,0,0-.07.14.14,0,0,1,0-.06Z"/><path class="cls-23" d="M62.1,28.09s0,0,0,0h0s0,0,0,0h0s0,0-.06,0,0,0-.06,0h0s0,0,0,0,0,0,0,0l0,0a.06.06,0,0,1,0,0s0,0,0,0,.06,0,.06.07a0,0,0,0,0,0,0s.06,0,.07,0Z"/><path class="cls-24" d="M62.22,27.51s0,0,0,0,0,0,0,0,0,0,0,0,0,0,0,0h0s0,0,0,0h0c0,.05,0,.07-.07.07s0,0,0,0a.17.17,0,0,0,0-.1h0a0,0,0,0,0,0,0h0Z"/><path class="cls-24" d="M61.67,28h0s0,0,0,.05a.13.13,0,0,1,0,.06,0,0,0,0,1,0,0s0,0,0,0h0s0,0,0,0A.14.14,0,0,1,61.67,28Z"/><path class="cls-23" d="M61.88,28.1a.1.1,0,0,0-.09,0h0s0,0,0,0h0A.06.06,0,0,1,61.88,28.1Z"/><path class="cls-24" d="M62.1,28.09h0s0,0,0,0S62.11,28.08,62.1,28.09Z"/><path class="cls-23" d="M62,27.73a.07.07,0,0,1,0,.06A.08.08,0,0,1,62,27.73Z"/><path class="cls-23" d="M62,27.66s0,0,0,.06S62,27.68,62,27.66Z"/><path class="cls-20" d="M63,27.65h.05A0,0,0,0,1,63,27.65Z"/><path class="cls-20" d="M62.23,27.5a0,0,0,0,1,0,0h.05S62.24,27.5,62.23,27.5Z"/><path class="cls-23" d="M62,27.62l0,0S62,27.63,62,27.62Z"/><path class="cls-23" d="M62.06,27.75s0,0,0,0S62.06,27.74,62.06,27.75Z"/><path class="cls-23" d="M61.94,27.8h0Z"/><path class="cls-20" d="M63,27.13v0h0A0,0,0,0,1,63,27.13Z"/><path class="cls-20" d="M62.27,27.49h0Z"/><path class="cls-21" d="M63.37,28.15h0Z"/><path class="cls-24" d="M62,28.28l.11,0a0,0,0,0,0,.05,0v0s0,0,0,.05l0,0a0,0,0,0,0,0,0v0s0,0,0,0,0,0,0,0h0s0,0,0,0l-.11,0s0,0,0,0h0l-.09,0s0,0,0,0,0,0,0,0a.18.18,0,0,0-.12,0h-.08s0,0,0,0,0,0,0,0a.18.18,0,0,1,.14,0,0,0,0,0,1,0,0s0,0,0,0h0a.08.08,0,0,0,.1,0Z"/><path class="cls-18" d="M61.64,27.89h0s0,0,0,0a.06.06,0,0,1,0,0v0h0a0,0,0,0,1,0,0Z"/><path class="cls-23" d="M61.64,27.89v0a0,0,0,0,0,0,0h0s0,0,0,0,0,0,0,0v-.05h0s0,.07,0,.09a0,0,0,0,0,0,0A0,0,0,0,1,61.64,27.89Z"/><path class="cls-23" d="M60.66,28.25a.13.13,0,0,0,0-.06.05.05,0,0,1,0-.05l0,.1Z"/><path class="cls-23" d="M61.59,27.85v0a.06.06,0,0,0,0,0s0,0,0,0v0s0,0,0,0S61.57,27.87,61.59,27.85Z"/><path class="cls-23" d="M61.69,27.76h0s0,0,0,0h0Z"/><path class="cls-16" d="M61.69,27.74h0s0,0,0,0h0S61.71,27.74,61.69,27.74Z"/><path class="cls-22" d="M62,28.16s0,0,0,0S62.05,28.16,62,28.16Z"/><path class="cls-22" d="M60.76,28.09s0,0,0,0S60.78,28.1,60.76,28.09Z"/><path class="cls-16" d="M61.64,27.75v0S61.62,27.76,61.64,27.75Z"/><path class="cls-22" d="M62,28.28h0S62,28.27,62,28.28Z"/><path class="cls-16" d="M61.65,27.74h0S61.64,27.74,61.65,27.74Z"/><path class="cls-18" d="M62.85,27.35l0,0s0,0,0,0S62.85,27.37,62.85,27.35Z"/><path class="cls-18" d="M62.84,27.31s0,0,0,0S62.84,27.32,62.84,27.31Z"/><path class="cls-16" d="M60.62,27.63h0a0,0,0,0,1,0,0h0Z"/><path class="cls-16" d="M60.54,27.61h0Z"/><path class="cls-18" d="M61.85,27.79s0,0,0,0a0,0,0,0,1,0,0h0Z"/><path class="cls-18" d="M61.85,27.81v0h0S61.85,27.82,61.85,27.81Z"/><path class="cls-16" d="M61.38,26.63h0a0,0,0,0,1,0,0h0Z"/><path class="cls-19" d="M62.22,27.51h0s0,0,0,0h0s0,0,0,0Z"/><path class="cls-23" d="M62.17,28.37v0a0,0,0,0,1,0,0h0s0,0,0,0,0,0,0,0Z"/><path class="cls-23" d="M62.26,28.53s.05,0,.05,0S62.28,28.55,62.26,28.53Z"/><path class="cls-23" d="M62.32,28.59s0,0,0,0S62.32,28.59,62.32,28.59Z"/><path class="cls-23" d="M62.2,28.4a0,0,0,0,1,0,0A0,0,0,0,1,62.2,28.4Z"/><path class="cls-22" d="M62.53,28.41a.07.07,0,0,0-.06,0s-.08,0-.08-.07,0,0,0,0,0,0,0,0,0,0,0,0,.1,0,.16,0,0,0,.06.05h0s0,0,0,0a.36.36,0,0,0,0,.11s0,0,0,0,0,0,0,0a0,0,0,0,1,0,0l0,0s0-.06,0-.09,0,0,0,0,0,0,0,0a.07.07,0,0,0-.08-.05,0,0,0,0,1-.05,0S62.53,28.39,62.53,28.41Z"/><path class="cls-21" d="M63.11,28.76s0,0,0,0l0,0a0,0,0,0,1,0,0s0,0,0,0h0Z"/><path class="cls-24" d="M63.14,28.8h0Z"/><path class="cls-19" d="M62.38,28.55h0s0,0,0,0S62.38,28.56,62.38,28.55Z"/><path class="cls-24" d="M62.87,28.5a0,0,0,0,1,0,0A0,0,0,0,1,62.87,28.5Z"/><path class="cls-24" d="M60.16,28.33a0,0,0,0,1,0,0s0,0,0,0,0,0,0,0S60.15,28.33,60.16,28.33Z"/><path class="cls-18" d="M60.06,28.2h0s0,0,0,0,0,0,0,0Z"/><path class="cls-18" d="M60.06,28.2h0Z"/><path class="cls-24" d="M62.2,28.34h0Z"/><polygon class="cls-19" points="63.13 28.72 63.13 28.72 63.13 28.72 63.13 28.71 63.13 28.72"/><path class="cls-19" d="M63.41,28.16h0Z"/><path class="cls-19" d="M62.18,28.25h0s0,0,0,0h0Z"/><path class="cls-18" d="M61.65,27.75s0,0,0,0h0a.14.14,0,0,0,0,.06.14.14,0,0,1,0,.07,0,0,0,0,1,0,0h0s0,0,0,0h0a.06.06,0,0,1,0,0s0,0,0,0h0S61.65,27.78,61.65,27.75Z"/><path class="cls-23" d="M61.67,27.85s0,0,0,0a.06.06,0,0,0,0,0S61.68,27.87,61.67,27.85Z"/><path class="cls-23" d="M61.67,27.92s0,0,0,0Z"/><polygon class="cls-23" points="61.67 27.93 61.67 27.93 61.67 27.93 61.67 27.93"/></g></g></svg>